<?xml version="1.0" encoding="UTF-8"?>
<svg id="b" data-name="레이어 2" xmlns="http://www.w3.org/2000/svg" width="94.145" height="87.017" viewBox="0 0 94.145 87.017">
  <g id="c" data-name="HOME_click">
    <g>
      <path d="m83.439,15.949c-2.292-12.795-12.961-18.436-26.86-14.419-1.794-.229-3.622-.348-5.478-.348C27.468,1.182,8.31,20.34,8.31,43.973c0,6.025,1.248,11.758,3.495,16.958l-2.306,1.824c-.088.069-.172.144-.251.223l-8.148,8.148c-.603.603-.907,1.442-.837,2.292.217,2.642,1.451,7.862,7.959,5.771.337-.108.652-.278.928-.499l9.109-7.287c7.85,9.388,19.647,15.361,32.841,15.361,23.633,0,42.791-19.158,42.791-42.791,0-10.719-3.941-20.516-10.453-28.024Z" fill="#fff" stroke="#666" stroke-miterlimit="10" stroke-width=".507"/>
      <g>
        <g>
          <path d="m34.797,26.43h1.344v4.095c.303-.395.666-.696,1.087-.903.422-.207.88-.311,1.374-.311,1.028,0,1.862.353,2.502,1.057.639.704.96,1.742.96,3.115,0,1.301-.316,2.381-.948,3.242-.633.861-1.509,1.291-2.63,1.291-.628,0-1.157-.151-1.589-.453-.257-.179-.532-.467-.825-.861v1.052h-1.275v-11.324Zm5.288,9.472c.372-.594.559-1.377.559-2.351,0-.865-.186-1.583-.559-2.151-.373-.568-.921-.852-1.646-.852-.631,0-1.185.233-1.661.7-.475.466-.712,1.233-.712,2.304,0,.773.097,1.401.293,1.882.365.907,1.045,1.36,2.042,1.36.75,0,1.312-.297,1.685-.891Z" fill="#666" stroke-width="0"/>
          <path d="m48.072,32.775c.317-.041.529-.174.637-.398.062-.124.093-.301.093-.532,0-.473-.167-.817-.502-1.03-.335-.214-.814-.32-1.438-.32-.72,0-1.232.196-1.533.587-.169.216-.279.538-.33.965h-1.291c.026-1.017.355-1.725.986-2.122.632-.398,1.364-.598,2.199-.598.967,0,1.752.185,2.356.553.599.369.898.942.898,1.721v4.74c0,.144.029.259.088.346.058.087.183.13.372.13.062,0,.131-.004.207-.011.077-.008.159-.019.247-.035v1.022c-.216.062-.379.1-.492.116s-.267.023-.461.023c-.476,0-.821-.169-1.037-.507-.113-.179-.192-.433-.238-.76-.281.368-.686.689-1.213.96-.528.272-1.109.408-1.744.408-.763,0-1.386-.232-1.87-.695-.484-.462-.726-1.042-.726-1.737,0-.762.237-1.353.714-1.772.477-.42,1.101-.679,1.875-.775l2.205-.277Zm-2.912,3.736c.292.229.638.345,1.037.345.487,0,.957-.113,1.414-.337.768-.374,1.152-.984,1.152-1.834v-1.112c-.168.107-.386.197-.651.269-.266.073-.527.124-.782.155l-.835.107c-.501.066-.878.171-1.131.314-.428.24-.641.624-.641,1.15,0,.398.146.713.438.943Z" fill="#666" stroke-width="0"/>
          <path d="m57.847,29.964c.581.451.931,1.227,1.049,2.328h-1.344c-.082-.507-.269-.928-.561-1.264s-.76-.503-1.405-.503c-.881,0-1.511.429-1.89,1.289-.246.558-.368,1.245-.368,2.064,0,.823.174,1.516.522,2.079.348.562.896.844,1.644.844.574,0,1.029-.175,1.364-.525.336-.349.568-.828.696-1.435h1.344c-.154,1.091-.539,1.888-1.153,2.393-.615.504-1.401.757-2.359.757-1.075,0-1.933-.393-2.573-1.18-.64-.786-.961-1.768-.961-2.946,0-1.444.351-2.568,1.052-3.372.702-.804,1.596-1.206,2.682-1.206.927,0,1.681.226,2.262.676Z" fill="#666" stroke-width="0"/>
          <path d="m60.248,26.469h1.329v6.552l3.546-3.495h1.767l-3.162,3.059,3.339,5.169h-1.767l-2.588-4.187-1.135,1.099v3.088h-1.329v-11.285Z" fill="#666" stroke-width="0"/>
        </g>
        <path d="m31.563,45.504h1.383v4.21c.327-.415.622-.707.883-.875.446-.292,1.002-.438,1.667-.438,1.193,0,2.002.418,2.427,1.253.231.456.347,1.088.347,1.898v5.278h-1.422v-5.186c0-.604-.076-1.047-.23-1.329-.251-.45-.722-.676-1.414-.676-.574,0-1.093.197-1.56.591-.466.395-.699,1.14-.699,2.236v4.364h-1.383v-11.324Z" fill="#666" stroke-width="0"/>
        <path d="m46.274,49.422c.728.706,1.092,1.745,1.092,3.116,0,1.325-.321,2.421-.962,3.286-.641.864-1.636,1.297-2.983,1.297-1.124,0-2.017-.383-2.678-1.148-.66-.765-.992-1.792-.992-3.082,0-1.381.348-2.482,1.045-3.3s1.633-1.228,2.807-1.228c1.052,0,1.943.353,2.67,1.06Zm-.859,5.468c.337-.693.506-1.465.506-2.313,0-.768-.122-1.392-.365-1.873-.385-.757-1.048-1.135-1.99-1.135-.836,0-1.444.322-1.823.967-.38.644-.569,1.422-.569,2.332,0,.875.189,1.604.569,2.187.379.583.982.875,1.807.875.907,0,1.528-.347,1.865-1.04Z" fill="#666" stroke-width="0"/>
        <path d="m49.063,48.601h1.367v1.168c.327-.405.625-.7.891-.884.456-.312.972-.468,1.552-.468.655,0,1.183.161,1.582.484.226.185.43.456.615.814.307-.44.669-.767,1.083-.979.415-.213.881-.319,1.398-.319,1.106,0,1.859.399,2.259,1.199.215.43.322,1.009.322,1.736v5.478h-1.436v-5.716c0-.548-.136-.924-.411-1.129-.274-.205-.608-.307-1.002-.307-.543,0-1.01.182-1.402.546s-.588.971-.588,1.82v4.787h-1.406v-5.371c0-.558-.066-.965-.199-1.221-.21-.385-.602-.577-1.175-.577-.523,0-.998.203-1.425.607-.428.405-.641,1.137-.641,2.198v4.364h-1.383v-8.228Z" fill="#666" stroke-width="0"/>
        <path d="m67.252,48.827c.544.274.959.629,1.244,1.064.275.415.458.899.549,1.452.082.379.122.983.122,1.813h-5.984c.025.837.221,1.508.587,2.015.366.506.932.759,1.699.759.717,0,1.289-.239,1.716-.718.238-.278.408-.599.508-.965h1.36c-.036.302-.156.639-.357,1.011s-.428.675-.677.91c-.417.41-.933.687-1.548.831-.33.082-.704.123-1.121.123-1.018,0-1.88-.373-2.588-1.118s-1.061-1.788-1.061-3.131c0-1.321.356-2.394,1.069-3.218.712-.825,1.644-1.237,2.794-1.237.58,0,1.143.137,1.687.411Zm.495,3.23c-.055-.599-.186-1.078-.388-1.436-.376-.666-1.003-.999-1.882-.999-.629,0-1.157.229-1.584.688s-.653,1.041-.679,1.747h4.533Z" fill="#666" stroke-width="0"/>
      </g>
    </g>
  </g>
</svg>