<?xml version="1.0" encoding="UTF-8"?>
<svg id="b" data-name="레이어 2" xmlns="http://www.w3.org/2000/svg" width="102.893" height="60.07" viewBox="0 0 102.893 60.07">
  <g id="c" data-name="HOME_click">
    <path d="m102.42,35.821c-1.072-6.074-5.886-10.735-12.161-12.677.15-1.354.228-2.727.228-4.117,0-.265-.017-.527-.022-.79.006-.115.022-.229.022-.345,0-.292-.02-.582-.056-.87C89.271,7.685,69.542.253,45.37.253S1.465,7.687.309,17.026c-.035.287-.056.576-.056.867,0,.115.017.229.022.343-.006.264-.022.526-.022.792,0,22.527,20.2,40.789,45.117,40.789,9.389,0,18.106-2.594,25.326-7.031,4.123,2.567,9.484,3.718,15.05,2.808,10.824-1.77,18.288-10.622,16.673-19.772Zm-17.657,14.2c-3.123.511-6.151.047-8.666-1.137,6.27-5.276,10.877-12.142,13.029-19.893,3.482,1.497,6.07,4.333,6.701,7.909,1.072,6.072-3.882,11.947-11.064,13.122Z" fill="#fff" stroke="#666" stroke-miterlimit="10" stroke-width=".507"/>
  </g>
</svg>