<?xml version="1.0" encoding="UTF-8"?>
<svg id="b" data-name="레이어 2" xmlns="http://www.w3.org/2000/svg" width="102.284" height="87.663" viewBox="0 0 102.284 87.663">
  <g id="c" data-name="HOME_click">
    <g>
      <rect x="5.195" y="10.014" width="91.894" height="53.804" transform="translate(9.713 -10.643) rotate(13.117)" fill="#fff" stroke="#666" stroke-miterlimit="10" stroke-width=".48"/>
      <path d="m84.302,75.676L6.932,87.423c-5.876-2.392-6.363-5.603-1.462-9.631l77.37-11.746c4.995,2.526,5.482,5.736,1.462,9.631Z" fill="#fff" stroke="#666" stroke-miterlimit="10" stroke-width=".466"/>
      <g>
        <path d="m28.686,20.659h1.357v4.131c.321-.407.611-.694.867-.859.437-.287.983-.43,1.636-.43,1.171,0,1.965.41,2.381,1.229.227.448.34,1.068.34,1.862v5.179h-1.395v-5.088c0-.593-.075-1.028-.226-1.304-.246-.442-.709-.664-1.387-.664-.563,0-1.073.194-1.531.581-.457.387-.686,1.118-.686,2.194v4.282h-1.357v-11.111Z" fill="#666" stroke-width="0"/>
        <path d="m41.599,26.884c.312-.04.519-.17.625-.391.061-.121.091-.295.091-.522,0-.464-.164-.801-.493-1.01s-.799-.314-1.411-.314c-.707,0-1.209.192-1.504.576-.166.212-.274.528-.324.947h-1.267c.026-.998.348-1.692.968-2.082.62-.391,1.339-.586,2.157-.586.949,0,1.719.181,2.312.543.587.362.881.925.881,1.689v4.651c0,.141.029.254.087.339.057.085.179.128.365.128.061,0,.129-.004.204-.011.076-.008.156-.019.242-.034v1.002c-.212.061-.372.098-.483.113s-.262.022-.453.022c-.467,0-.806-.166-1.018-.497-.111-.176-.188-.424-.234-.746-.276.362-.673.676-1.191.942s-1.088.399-1.711.399c-.749,0-1.36-.227-1.835-.681-.475-.454-.712-1.022-.712-1.705,0-.748.233-1.327.701-1.739.468-.412,1.08-.665,1.84-.76l2.164-.271Zm-2.857,3.666c.287.225.626.338,1.018.338.478,0,.939-.11,1.387-.331.753-.366,1.13-.966,1.13-1.799v-1.091c-.165.106-.378.194-.639.265-.261.071-.517.121-.768.151l-.819.105c-.492.065-.861.168-1.109.308-.42.236-.629.612-.629,1.128,0,.391.144.699.43.925Z" fill="#666" stroke-width="0"/>
        <path d="m46.524,23.697l2.156,6.573,2.246-6.573h1.485l-3.039,8.073h-1.446l-2.978-8.073h1.575Z" fill="#666" stroke-width="0"/>
        <path d="m58.563,23.919c.534.269.941.617,1.221,1.044.27.407.449.882.539,1.425.08.372.12.965.12,1.779h-5.871c.025.822.217,1.48.576,1.977.359.496.915.744,1.667.744.703,0,1.265-.235,1.683-.704.234-.273.4-.588.498-.947h1.334c-.036.296-.153.627-.351.991s-.42.662-.664.893c-.409.402-.916.673-1.519.814-.324.08-.691.12-1.1.12-.999,0-1.845-.366-2.539-1.097-.694-.731-1.041-1.755-1.041-3.072,0-1.296.349-2.349,1.049-3.158.699-.809,1.613-1.213,2.742-1.213.569,0,1.121.134,1.656.403Zm.486,3.17c-.054-.588-.182-1.058-.381-1.41-.369-.653-.985-.98-1.847-.98-.618,0-1.135.225-1.554.674-.419.45-.641,1.022-.666,1.715h4.448Z" fill="#666" stroke-width="0"/>
        <path d="m70.779,26.884c.312-.04.519-.17.625-.391.061-.121.091-.295.091-.522,0-.464-.164-.801-.493-1.01s-.799-.314-1.411-.314c-.707,0-1.209.192-1.504.576-.166.212-.274.528-.324.947h-1.267c.026-.998.348-1.692.968-2.082.62-.391,1.339-.586,2.157-.586.949,0,1.719.181,2.312.543.587.362.881.925.881,1.689v4.651c0,.141.029.254.087.339.057.085.179.128.365.128.061,0,.129-.004.204-.011.076-.008.156-.019.242-.034v1.002c-.212.061-.372.098-.483.113s-.262.022-.453.022c-.467,0-.806-.166-1.018-.497-.111-.176-.188-.424-.234-.746-.276.362-.673.676-1.191.942s-1.088.399-1.711.399c-.749,0-1.36-.227-1.835-.681-.475-.454-.712-1.022-.712-1.705,0-.748.233-1.327.701-1.739.468-.412,1.08-.665,1.84-.76l2.164-.271Zm-2.857,3.666c.287.225.626.338,1.018.338.478,0,.939-.11,1.387-.331.753-.366,1.13-.966,1.13-1.799v-1.091c-.165.106-.378.194-.639.265-.261.071-.517.121-.768.151l-.819.105c-.492.065-.861.168-1.109.308-.42.236-.629.612-.629,1.128,0,.391.144.699.43.925Z" fill="#666" stroke-width="0"/>
        <path d="m28.572,39.185h1.319v4.018c.297-.387.653-.682,1.067-.886.414-.204.863-.305,1.348-.305,1.009,0,1.827.346,2.456,1.037.627.691.942,1.71.942,3.057,0,1.276-.31,2.337-.93,3.181-.621.844-1.481,1.266-2.58,1.266-.616,0-1.135-.148-1.559-.445-.253-.176-.522-.457-.81-.844v1.033h-1.251v-11.111Zm5.189,9.294c.365-.583.548-1.352.548-2.306,0-.849-.183-1.553-.548-2.111-.366-.557-.904-.836-1.616-.836-.619,0-1.163.229-1.63.686-.466.457-.699,1.211-.699,2.261,0,.759.096,1.375.287,1.847.358.889,1.026,1.334,2.004,1.334.736,0,1.287-.291,1.653-.875Z" fill="#666" stroke-width="0"/>
        <path d="m37.309,42.222h1.289v1.395c.105-.271.364-.602.777-.991s.887-.584,1.425-.584c.025,0,.068.003.129.008.06.005.163.015.309.03v1.432c-.08-.015-.154-.025-.222-.03s-.142-.008-.222-.008c-.684,0-1.209.22-1.575.66s-.551.946-.551,1.519v4.644h-1.357v-8.073Z" fill="#666" stroke-width="0"/>
        <path d="m47.4,42.445c.534.269.941.617,1.221,1.044.27.407.449.882.539,1.425.08.372.12.965.12,1.779h-5.871c.025.822.217,1.48.576,1.977.359.496.915.744,1.667.744.703,0,1.265-.235,1.683-.704.234-.273.4-.588.498-.947h1.334c-.036.296-.153.627-.351.991s-.42.662-.664.893c-.409.402-.916.673-1.519.814-.324.08-.691.12-1.1.12-.999,0-1.845-.366-2.539-1.097-.694-.731-1.041-1.755-1.041-3.072,0-1.296.349-2.349,1.049-3.158.699-.809,1.613-1.213,2.742-1.213.569,0,1.121.134,1.656.403Zm.486,3.17c-.054-.588-.182-1.058-.381-1.41-.369-.653-.985-.98-1.847-.98-.618,0-1.135.225-1.554.674-.419.45-.641,1.022-.666,1.715h4.448Z" fill="#666" stroke-width="0"/>
        <path d="m55.326,45.41c.312-.04.519-.17.625-.391.061-.121.091-.295.091-.522,0-.464-.164-.801-.493-1.01s-.799-.314-1.411-.314c-.707,0-1.209.192-1.504.576-.166.212-.274.528-.324.947h-1.267c.026-.998.348-1.692.968-2.082.62-.391,1.339-.586,2.157-.586.949,0,1.719.181,2.312.543.587.362.881.925.881,1.689v4.651c0,.141.029.254.087.339.057.085.179.128.365.128.061,0,.129-.004.204-.011.076-.008.156-.019.242-.034v1.002c-.212.061-.372.098-.483.113s-.262.022-.453.022c-.467,0-.806-.166-1.018-.497-.111-.176-.188-.424-.234-.746-.276.362-.673.676-1.191.942s-1.088.399-1.711.399c-.749,0-1.36-.227-1.835-.681-.475-.454-.712-1.022-.712-1.705,0-.748.233-1.327.701-1.739.468-.412,1.08-.665,1.84-.76l2.164-.271Zm-2.857,3.666c.287.225.626.338,1.018.338.478,0,.939-.11,1.387-.331.753-.366,1.13-.966,1.13-1.799v-1.091c-.165.106-.378.194-.639.265-.261.071-.517.121-.768.151l-.819.105c-.492.065-.861.168-1.109.308-.42.236-.629.612-.629,1.128,0,.391.144.699.43.925Z" fill="#666" stroke-width="0"/>
        <path d="m59.554,39.222h1.304v6.429l3.479-3.429h1.733l-3.103,3.002,3.277,5.072h-1.733l-2.539-4.108-1.114,1.078v3.03h-1.304v-11.073Z" fill="#666" stroke-width="0"/>
        <path d="m68.095,39.222h1.53v3.641l-.37,4.794h-.769l-.392-4.794v-3.641Zm0,9.506h1.5v1.568h-1.5v-1.568Z" fill="#666" stroke-width="0"/>
      </g>
    </g>
  </g>
</svg>