<?xml version="1.0" encoding="UTF-8"?>
<svg id="b" data-name="레이어 2" xmlns="http://www.w3.org/2000/svg" width="900.07" height="1009.036" viewBox="0 0 900.07 1009.036">
  <g id="c" data-name="HOME_click">
    <g>
      <path d="m281.748,45.079h-67.654v66.071c25.048,0,51.267-1.529,79.359-6.424l2.341,32.73c-28.327,4.894-57.588,6.729-83.574,6.729h-29.262V12.35h98.789v32.729Zm62.738,175.27c0,37.623-22.239,63.011-57.588,63.011-35.583,0-58.056-25.388-58.056-63.011s22.473-62.706,58.056-62.706c35.35,0,57.588,25.082,57.588,62.706Zm-84.743,0c0,19.27,11.236,30.894,26.922,30.894s26.921-11.624,26.921-30.894c0-18.965-11.236-30.894-26.921-30.894s-26.922,11.929-26.922,30.894Zm8.428-161.506h50.799V1.338h31.135v151.411h-31.135v-61.176h-50.799v-32.73Z" stroke="#000" stroke-width="2.676"/>
      <path d="m498.993,11.432v32.117h-70.931v55.059c27.389,0,47.755-1.223,80.53-6.729l2.341,31.812c-33.007,5.812-54.077,7.341-82.403,7.341h-31.603V11.432h102.066Zm27.389,186.282v-15.6h-104.642v-30.894h135.543v74.941h-103.705v16.211h107.684v31.2h-138.82v-75.858h103.939Zm-.233-58.424V1.338h31.135v49.859h30.432v33.953h-30.432v54.141h-31.135Z" stroke="#000" stroke-width="2.676"/>
      <path d="m722.091,106.255c0,46.494-24.815,75.858-58.291,75.858-33.71,0-58.29-29.365-58.29-75.858,0-46.8,25.048-76.164,58.29-76.164,33.476,0,58.291,29.365,58.291,76.164Zm-30.902,0c0-25.082-10.066-43.435-27.389-43.435s-27.389,18.352-27.389,43.435c0,24.776,10.066,43.129,27.389,43.129s27.389-18.353,27.389-43.129Zm51.502,165.176V1.338h31.135v88.4h31.603v34.564h-31.603v147.129h-31.135Z" stroke="#000" stroke-width="2.676"/>
      <path d="m179.342,678.173v-102.855H2.228v-42.328h421.463v42.328h-177.115v102.855h-67.234Zm-48.166-295.112h163.566v-44.307h66.732v162.589H64.444v-162.589h66.732v44.307Zm163.566,41.142h-163.566v35.603h163.566v-35.603Z" stroke="#000" stroke-width="4.455"/>
      <path d="m636.435,403.631c-1.504,14.241-4.515,27.691-8.528,41.141,40.64,37.977,80.78,79.515,114.396,119.47l-52.681,28.483c-26.594-32.044-57.199-63.296-86.802-92.174-22.077,35.999-54.188,69.229-96.335,99.69l-47.666-34.021c67.736-47.867,106.872-102.063,112.891-162.589h-86.802v-42.724h235.82v42.724h-84.293Zm126.942,274.542v-349.309h66.732v124.217h67.734v44.702h-67.734v180.391h-66.732Z" stroke="#000" stroke-width="4.455"/>
      <path d="m296.262,830.593h-36.988v17.129c18.494-.917,37.456-2.753,53.375-5.505l1.171,30.588c-32.306,5.506-78.892,7.647-106.748,7.647h-31.838v-31.2h31.838c6.086,0,13.109,0,20.835-.305v-18.353h-37.456v-87.788h103.004v31.199h-71.869v26h74.677v30.588Zm25.048,106.141v-14.07h-107.45v-29.365h138.585v70.352h-106.748v14.683h110.728v29.365h-141.864v-70.965h106.748Zm0-52.611v-148.658h31.135v148.658h-31.135Z" stroke="#000" stroke-width="2.676"/>
      <path d="m479.563,791.44h-51.267v38.541h41.201v31.812h-41.201v41.905c18.727,0,39.796-1.836,59.226-5.812l2.341,31.811c-20.6,4.283-42.137,6.424-62.27,6.424h-29.262v-176.799h81.231v32.117Zm53.375,200.964h-29.497v-130.305h-25.048v-33.34h25.048v-87.482h29.497v251.128Zm11.471-256.94h29.73v270.093h-29.73v-270.093Z" stroke="#000" stroke-width="2.676"/>
      <path d="m702.193,851.699v90.541h98.555v33.035h-196.642v-33.035h66.718v-90.541h31.369Zm30.199,48.023c5.15-41.599,7.491-80.14,7.725-113.788h-109.089v-33.035h140.224v25.694c0,39.459-2.575,82.588-7.725,125.412l-31.135-4.283Z" stroke="#000" stroke-width="2.676"/>
    </g>
  </g>
</svg>