<?xml version="1.0" encoding="UTF-8"?>
<svg id="b" data-name="레이어 2" xmlns="http://www.w3.org/2000/svg" width="977.441" height="428.328" viewBox="0 0 977.441 428.328">
  <g id="c" data-name="HOME_click">
    <g>
      <path d="m153.916,72.192c-1.927,13.784-5.782,28.487-11.084,43.648,27.47,25.729,55.424,56.513,80.484,90.054l-44.338,37.217c-21.205-28.487-40.483-52.839-62.171-73.973-17.831,29.405-41.448,57.892-70.362,80.865L3.552,209.111c47.23-38.595,78.074-89.595,86.748-136.919H23.31V23.489h187.474v48.703h-56.869Zm244.825,333.568H106.203v-141.055h64.098v92.811h228.44v48.244Zm-93.977-127.271h-60.243v-129.567h-53.977v-50.54h53.977V6.489h60.243v271.999ZM328.861,2.353h61.206v286.243h-61.206V2.353Z" stroke="#000" stroke-width="4.706"/>
      <path d="m724.481,68.056c-2.41,11.028-5.784,21.595-10.121,32.163,32.291,24.811,66.025,54.676,98.317,86.838l-43.858,38.595c-26.507-26.648-55.421-52.838-82.893-75.351-22.17,30.783-51.567,59.27-84.338,82.243l-42.893-40.892c53.494-36.297,87.713-79.027,102.171-123.595h-79.039V19.353h218.801v48.703h-76.147Zm181.69,263.73c0,55.135-46.265,94.19-119.039,94.19-73.254,0-119.519-39.055-119.519-94.19s46.265-93.73,119.519-93.73c72.774,0,119.039,38.595,119.039,93.73Zm-174.943,0c0,28.947,23.132,45.487,55.424,45.487s55.904-16.54,55.904-45.487c0-28.487-23.615-45.487-55.904-45.487s-55.424,17-55.424,45.487Zm117.112-98.324V2.353h64.098v84.541h62.651v51h-62.651v95.567h-64.098Z" stroke="#000" stroke-width="4.706"/>
    </g>
  </g>
</svg>