<?xml version="1.0" encoding="UTF-8"?>
<svg id="b" data-name="레이어 2" xmlns="http://www.w3.org/2000/svg" width="1380.21" height="632.891" viewBox="0 0 1380.21 632.891">
  <g id="c" data-name="HOME_click">
    <g>
      <path d="m1.784,279.107h222.457l1.417,86.986h85.518v-119.967h69.78v364.023h-69.78v-198.296h-85.518v100.591H3.201l-1.417-233.337Zm154.617,44.111h-83.42v145.115h83.42v-145.115Z" stroke="#000" stroke-width="3.546"/>
      <path d="m659.02,187.016c-3.609,21.618-8.67,41.88-14.775,62.045,36.93,61.404,69.056,129.066,97.287,193.313l-58.93,38.39c-22.461-52.729-46.713-103.185-72.466-148.902-28.085,52.26-66.333,100.517-114.576,142.959l-44.75-56.647c77.376-66.547,124.841-145.655,140.824-237.474l-90.371-8.47,6.12-65.296,242.905,22.768-6.12,65.296-85.147-7.981Zm60.888,58.768l88.802,8.323,15.641-166.869,69.476,6.512-50.039,533.862-69.476-6.512,27.995-298.673-88.802-8.323,6.404-68.319Z" stroke="#000" stroke-width="4.303"/>
      <path d="m1232.058,42.25l-38.032,235.759-133.505-21.537-16.025,99.339c52.651,8.494,112.557,13.85,175.474,12.516l-8.203,74.762c-63.969,1.883-127.995-4.857-184.403-13.957l-57.352-9.252,39.838-246.951,133.975,21.613,14.22-88.147-136.323-21.991,11.963-74.155,198.373,32.001Zm45.962,588.102l-62.521-10.086L1315.15,2.539l62.521,10.086-99.651,617.728Z" stroke="#000" stroke-width="4.429"/>
    </g>
  </g>
</svg>