<?xml version="1.0" encoding="UTF-8"?>
<svg id="b" data-name="레이어 2" xmlns="http://www.w3.org/2000/svg" width="1515.579" height="651.312" viewBox="0 0 1515.579 651.312">
  <g id="c" data-name="HOME_click">
    <g>
      <path d="m167.257,208.915c8.393-45.7,16.788-126.53,17.409-157.619H40.416V17.721h185.598v26.114c0,36.063-8.393,116.582-17.409,165.08h58.756v32.954H6.218v-32.954h161.039Z" fill="#fff" stroke-width="0"/>
      <path d="m307.78,27.047h109.431v31.399c-9.636,56.271-44.766,114.717-94.198,154.2l-27.358-26.736c42.902-33.265,73.68-81.764,81.762-125.598h-69.638V27.047Zm174.718,234.097h-39.173v-124.976h-37.928v-34.508h37.928V5.907h39.173v255.237ZM502.084,0h39.482v274.513h-39.482V0Z" fill="red" stroke-width="0"/>
      <path d="m784.681,58.758c-.932,11.192-2.798,21.762-5.284,32.332,25.181,29.845,50.052,62.489,70.881,93.888l-32.642,22.383c-16.478-25.182-35.441-49.741-53.783-72.436-13.679,28.291-33.576,54.405-59.69,78.343l-29.535-26.736c41.97-37.617,66.219-80.208,69.949-127.774h-53.783V25.182h146.117v33.576h-52.229Zm78.655,215.755V0h41.348v97.619h41.969v35.13h-41.969v141.764h-41.348Z" fill="#fff" stroke-width="0"/>
      <path d="m1022.822,24.25v140.831c23.939,0,46.011-1.554,69.95-5.596l3.109,32.954c-26.114,4.352-50.363,5.907-77.723,5.907h-35.751V24.25h40.414Zm37.307,55.337h53.161V5.907h38.861v255.237h-38.861V113.785h-53.161v-34.198ZM1172.359,0h39.171v274.513h-39.171V0Z" fill="red" stroke-width="0"/>
      <path d="m1254.435,154.2v-28.912h261.143v28.912h-261.143Zm221.972,11.503v68.084h-142.386v13.99h149.224v28.912h-190.261v-69.638h142.386v-13.057h-143.319v-28.291h184.356Zm-182.801-50.985V46.944h140.831v-13.057h-141.763V4.975h183.111v68.395h-140.831v13.057h145.183v28.291h-186.531Z" fill="#fff" stroke-width="0"/>
      <path d="m35.752,557.424h73.99v-23.317H0v-32.332h261.143v32.332h-109.742v23.317h71.503v93.887h-41.348v-61.556H35.752v-32.332Zm123.11-143.63c-2.175,4.042-4.663,7.772-7.461,11.503,27.358,10.881,55.027,24.25,84.872,39.793l-19.897,29.845c-30.778-16.166-61.556-30.778-91.401-42.591-25.492,19.897-57.824,34.819-85.493,43.213l-17.72-30.777c36.996-11.192,73.68-31.399,88.602-50.986H39.482v-32.643h182.49v32.643h-63.11Z" fill="red" stroke-width="0"/>
      <path d="m447.367,442.707c0,36.996-28.912,64.353-74.612,64.353-46.011,0-74.612-27.358-74.612-64.353s29.223-64.353,74.612-64.353c45.7,0,74.612,27.358,74.612,64.353Zm-40.725,0c0-16.165-10.881-32.021-33.887-32.021s-33.887,15.856-33.887,32.021,10.881,32.332,33.887,32.332,33.887-16.166,33.887-32.332Zm77.721,129.951v-15.856h-142.075v-31.399h183.113v76.167h-140.831v16.477h147.359v31.711h-188.707v-77.099h141.141Zm-.31-59.38v-140.21h41.348v140.21h-41.348Z" fill="#fff" stroke-width="0"/>
      <path d="m597.216,397.94h128.707v32.021c-13.368,61.866-53.161,117.826-115.96,157.93l-24.871-29.223c51.918-32.643,89.536-79.276,99.795-127.152h-87.67v-33.576Zm125.598,78.343h50.365v-103.215h41.348v274.513h-41.348v-136.79h-50.365v-34.508Z" fill="red" stroke-width="0"/>
      <path d="m1000.439,396.074v104.768h-85.182v44.146c34.819,0,70.881-1.866,111.297-6.839l2.487,32.954c-41.037,5.285-79.898,6.839-117.203,6.839h-37.928v-109.743h85.493v-39.172h-87.048v-32.954h128.084Zm46.322,251.507v-274.513h41.348v98.24h41.969v35.13h-41.969v141.142h-41.348Z" fill="#fff" stroke-width="0"/>
      <path d="m1280.55,491.205v92.022h130.882v33.576h-261.143v-33.576h88.602v-92.022h41.659Zm40.105,48.809c6.839-42.28,9.948-81.452,10.259-115.65h-144.872v-33.576h186.22v26.114c0,40.105-3.42,83.939-10.259,127.464l-41.348-4.353Z" fill="red" stroke-width="0"/>
      <path d="m1457.446,390.479h44.768l-1.554,129.639-3.42,54.095h-34.819l-3.42-54.095-1.554-129.639Zm.311,203.008h44.146v42.902h-44.146v-42.902Z" fill="#fff" stroke-width="0"/>
    </g>
  </g>
</svg>