<?xml version="1.0" encoding="UTF-8"?>
<svg id="b" data-name="레이어 2" xmlns="http://www.w3.org/2000/svg" width="1559.019" height="313.118" viewBox="0 0 1559.019 313.118">
  <g id="c" data-name="HOME_click">
    <g>
      <path d="m181.815,235.097c9.341-50.86,18.683-140.815,19.374-175.414H40.654V22.317h206.552v29.063c0,40.135-9.341,129.745-19.374,183.718h65.39v36.674H2.595v-36.674h179.22Z" fill="#fff" stroke="#000" stroke-miterlimit="10" stroke-width="5.19"/>
      <path d="m347.198,30.274h143.238v35.636c-14.877,68.852-59.163,131.128-129.052,175.762l-27.679-32.524c57.779-36.327,99.644-88.224,111.061-141.508h-97.568V30.274Zm139.778,87.19h56.051V2.595h46.014v305.505h-46.014v-152.232h-56.051v-38.404Z" fill="#fff" stroke="#000" stroke-miterlimit="10" stroke-width="5.19"/>
      <path d="m920.845,80.443c0,43.94-34.253,71.273-81.308,71.273-47.4,0-81.306-27.333-81.306-71.273s33.906-71.965,81.306-71.965,81.308,28.026,81.308,71.965Zm35.981,144.275v-17.644h-154.655v-34.945h200.326v84.766h-153.271v18.337h159.152v35.292h-205.168v-85.805h153.616Zm-81.306-144.275c0-20.067-13.84-35.983-35.983-35.983s-35.983,15.916-35.983,35.983,13.84,35.636,35.983,35.636,35.983-15.57,35.983-35.636Zm80.961,78.192V2.595h46.016v56.396h44.977v38.405h-44.977v61.239h-46.016Z" fill="#fff" stroke="#000" stroke-miterlimit="10" stroke-width="5.19"/>
      <path d="m1246.074,121.269c0,52.589-36.675,85.805-86.151,85.805-49.822,0-86.149-33.215-86.149-85.805,0-52.936,37.02-86.149,86.149-86.149,49.476,0,86.151,33.214,86.151,86.149Zm-45.671,0c0-28.372-14.877-49.13-40.48-49.13s-40.48,20.758-40.48,49.13c0,28.024,14.877,48.783,40.48,48.783s40.48-20.759,40.48-48.783Zm76.118,186.831V2.595h46.016v99.991h46.707v39.096h-46.707v166.418h-46.016Z" fill="#fff" stroke="#000" stroke-miterlimit="10" stroke-width="5.19"/>
      <path d="m1471.659,20.242c49.822,0,84.766,28.024,84.766,73.694,0,31.83-19.72,59.165-51.897,84.075-10.033,7.611-14.186,15.568-14.879,28.37l-.691,21.797h-38.75l-1.039-26.294c-1.037-19.029,4.844-37.713,20.067-49.131,23.182-17.644,40.135-38.057,40.135-58.817,0-21.45-15.223-34.253-38.75-34.253-18.338,0-32.178,11.072-40.826,26.642l-38.059-22.836c14.877-27.333,44.977-43.247,79.922-43.247Zm-26.64,227.657h48.783v47.746h-48.783v-47.746Z" fill="#fff" stroke="#000" stroke-miterlimit="10" stroke-width="5.19"/>
    </g>
  </g>
</svg>