<?xml version="1.0" encoding="UTF-8"?>
<svg id="b" data-name="레이어 2" xmlns="http://www.w3.org/2000/svg" width="1742.803" height="869.83" viewBox="0 0 1742.803 869.83">
  <g id="c" data-name="HOME_click">
    <g>
      <g>
        <path d="m69.252,86.505c.823,7.796.925,15.288.599,22.862,21.168,17.176,42.488,36.312,60.873,55.123l-19.46,19.614c-14.59-15.115-30.802-29.479-46.345-42.646-5.684,21.187-15.917,41.695-30.697,61.522l-23.746-14.476c23.866-31.279,34.931-63.654,31.274-96.759l-36.882,7.027L.482,75.747l100.199-19.09,4.387,23.024-35.816,6.823Zm82.125,137.677L115.512,35.936l28.354-5.402,12.753,66.942,28.78-5.483,4.59,24.09-28.78,5.483,18.521,97.214-28.354,5.402Z" stroke="#000" stroke-width=".824"/>
        <path d="m247.871,58.597l31.18,93.236c15.849-5.3,30.117-11.216,45.071-19.192l9.354,21.129c-16.325,8.663-32.035,15.061-50.148,21.118l-23.669,7.915-38.545-115.258,26.756-8.948Zm36.95,28.376l35.195-11.77-16.313-48.779,25.728-8.604,56.509,168.977-25.728,8.604-32.625-97.558-35.195,11.77-7.571-22.64Zm56.68-77.537l25.933-8.672,60.777,181.739-25.933,8.672L341.502,9.435Z" stroke="#000" stroke-width=".824"/>
        <path d="m428.875,63.928l86.444-28.909,7.089,21.199c4.846,43.918-10.481,89.777-43.177,130.231l-22.936-13.841c27.145-33.105,43.097-72.308,39.288-106.276l-59.275,19.823-7.434-22.228Zm166.893,127.486l-60.777-181.739,27.374-9.154,21.957,65.657,27.785-9.292,7.778,23.257-27.785,9.292,31.042,92.824-27.374,9.154Z" stroke="#000" stroke-width=".824"/>
        <path d="m373.378,297.833l2.686,22.628-65.299,7.75,5.039,42.456c25.214-2.993,43.861-6.08,73.573-13.54l4.815,22.157c-29.901,7.701-49.169,11.081-75.246,14.176l-29.093,3.453-10.436-87.928,93.962-11.152Zm-57.974,115.498l124.35-14.759,8.953,75.429-124.35,14.759-8.953-75.429Zm98.347,11.056l-67.024,7.955,3.607,30.387,67.024-7.955-3.607-30.387Zm-3.786-31.896l-12.559-105.816,28.663-3.402,4.553,38.361,28.016-3.325,2.839,23.922-28.016,3.325,5.167,43.533-28.663,3.402Z" stroke="#000" stroke-width=".824"/>
        <path d="m519.361,399.89l24.353-2.89-4.988-42.024,26.939-3.197,14.657,123.487-78.446,9.311-14.657-123.487,27.154-3.223,4.988,42.024Zm27.064,19.954l-24.353,2.89,4.246,35.775,24.353-2.89-4.246-35.775Zm67.64-24.856l14.44-1.714-7.546-63.576,27.37-3.248,22.586,190.296-27.37,3.248-12.099-101.937-14.44,1.714,10.999,92.669-27.154,3.223-21-176.934,27.154-3.223,7.06,59.481Z" stroke="#000" stroke-width=".824"/>
        <path d="m696.055,382.475l-2.379-20.042,181.028-21.486,2.379,20.042-181.028,21.486Zm154.821-10.289l5.602,47.197-98.704,11.715,1.151,9.698,103.445-12.278,2.379,20.042-131.892,15.654-5.73-48.274,98.704-11.715-1.074-9.051-99.351,11.792-2.328-19.611,127.798-15.168Zm-130.916-20.303l-5.576-46.982,97.626-11.587-1.074-9.051-98.272,11.664-2.379-20.042,126.935-15.066,5.627,47.413-97.626,11.587,1.074,9.051,100.643-11.945,2.328,19.611-129.306,15.347Z" stroke="#000" stroke-width=".824"/>
      </g>
      <g>
        <path d="m1195.609,390.046l7.827.651,2.511-30.182,17.695,1.472-8.69,104.475-43.557-3.623,8.69-104.475,18.035,1.5-2.511,30.182Zm5.799,25.029l-7.827-.651-2.144,25.771,7.827.651,2.144-25.771Zm-9.181,71.239l103.277,8.591-6.354,76.383-22.629-1.882,4.345-52.238-80.648-6.708,2.008-24.145Zm104.127-1.625l-20.928-1.741,4.5-54.095-11.909-.991-3.553,42.719-43.557-3.623,8.69-104.475,17.695,1.472-2.511,30.182,7.826.651,2.511-30.182,18.036,1.5-2.993,35.986,11.909.991,3.438-41.326,20.928,1.741-10.081,121.191Zm-45.775-65.523l-7.826-.651-2.144,25.771,7.826.651,2.144-25.771Z" stroke="#000"/>
        <path d="m1360.384,413.166l7.827.651,2.511-30.182,17.695,1.472-8.69,104.475-43.557-3.623,8.69-104.475,18.035,1.5-2.511,30.182Zm5.799,25.029l-7.827-.651-2.144,25.771,7.827.651,2.144-25.771Zm-9.181,71.239l103.277,8.591-6.354,76.383-22.629-1.882,4.345-52.238-80.648-6.708,2.008-24.145Zm104.127-1.625l-20.928-1.741,4.5-54.095-11.909-.991-3.553,42.719-43.557-3.623,8.69-104.475,17.695,1.472-2.511,30.182,7.826.651,2.511-30.182,18.036,1.5-2.993,35.986,11.909.991,3.438-41.326,20.928,1.741-10.081,121.191Zm-45.775-65.523l-7.826-.651-2.144,25.771,7.826.651,2.144-25.771Z" stroke="#000"/>
        <path d="m996.249,662.978l-1.536,77.661c5.463-.518,10.927-1.812,16.561-3.106l1.195,27.44c-24.074,4.918-49.512,6.472-70.171,6.472h-23.902v-27.699h16.049l-1.537-80.767h21.684l1.366,80.767c5.122,0,11.269-.518,17.244-1.035l1.366-79.732h21.683Zm-75.292-37.795h87.415v27.699h-87.415v-27.699Zm122.926,207.614h-22.707v-228.583h22.707v228.583Z" stroke="#000"/>
        <path d="m1172.19,780.797c-12.122,2.589-26.805,4.142-41.488,4.918v74.037h-22.707v-73.26h-36.537v-27.182h27.829c19.123,0,54.122-2.07,71.878-5.436l1.025,26.923Zm-13.488-83.615c0,29.511-15.366,49.962-39.098,49.962-23.902,0-38.756-20.45-38.756-49.962,0-29.77,15.195-50.48,38.756-50.48,23.732,0,39.098,20.71,39.098,50.48Zm-22.366,0c0-12.944-6.146-23.816-16.732-23.816s-16.39,11.132-16.39,23.816,5.805,23.557,16.39,23.557,16.732-10.873,16.732-23.557Zm43.025,133.059h-32.269v-27.181h32.269v-162.312h22.707v228.583h-22.707v-39.09Z" stroke="#000"/>
        <path d="m1324.047,651.458l-35.171-7.793-17.202,77.635c12.835,2.844,26.471,4.441,41.125,4.601l-3.649,24.361c-16.038-.23-29.84-1.863-44.176-5.04l-20.002-4.432,27.935-126.071,56.507,12.521-5.366,24.218Zm-18.014,149.166l41.175-185.825,21.003,4.654-13.842,62.47,11.335,2.512,14.795-66.771,21.169,4.691-44.285,199.858-21.169-4.691,23.722-107.059-11.335-2.512-21.566,97.326-21.003-4.654Z" stroke="#000"/>
        <path d="m1464.227,618.802l-23.02,103.89c17.836,3.952,39.19,7.022,59.662,7.758l-3.699,24.588c-21.855-.806-44.21-4.097-64.379-8.566l-19.169-4.248,28.437-128.335,22.17,4.912Zm53.005,204.319l-22.17-4.912,44.285-199.858,22.17,4.912-44.285,199.858Z" stroke="#000"/>
        <path d="m1613.656,614.615l40.839,9.049-5.216,23.539c-7.954,29.581-25.031,66.402-51.939,93.921l-14.026-18.78c21.719-22.257,36.592-51.493,44.927-78.852l-20.003-4.432,5.416-24.445Zm45.34,10.046l39.839,8.828-5.216,23.539c-8.607,34.898-27.156,79.941-55.251,113.607l-14.409-18.628c23.256-27.615,40.435-67.263,48.624-98.692l-19.003-4.211,5.416-24.445Zm11.835,192.822l44.285-199.858,22.17,4.912-15.748,71.071,20.67,4.58-5.667,25.576-20.67-4.58-22.87,103.211-22.17-4.912Z" stroke="#000"/>
      </g>
    </g>
  </g>
</svg>