<?xml version="1.0" encoding="UTF-8"?>
<svg id="b" data-name="레이어 2" xmlns="http://www.w3.org/2000/svg" width="2206.885" height="1052.982" viewBox="0 0 2206.885 1052.982">
  <g id="c" data-name="HOME_click">
    <g>
      <path d="m221.398,27.878h133.005v31.833c-11.662,64.927-56.101,125.755-120.398,164.207l-24.583-29.312c29.942-17.964,55.155-40.027,73.436-64.926-11.347,1.576-23.323,1.891-34.354,1.891h-34.039v-33.409h34.039c17.649,0,36.244,0,53.895-2.522,4.728-11.031,8.195-22.377,10.4-34.039h-91.401V27.878Zm128.907,76.588h52.32V2.979h41.917v278.3h-41.917v-141.829h-52.32v-34.984Z" stroke="#000" stroke-width="5.959"/>
      <path d="m649.724,74.524l-2.836,94.552c10.085-.63,20.171-2.206,30.572-3.782l2.207,33.409c-44.441,5.988-91.401,7.879-129.538,7.879h-44.124v-33.724h29.627l-2.838-98.334h40.028l2.521,98.334c9.455,0,20.802-.63,31.833-1.26l2.521-97.074h40.027Zm-138.992-46.015h161.37v33.723h-161.37V28.509Zm226.925,252.77h-41.918V2.979h41.918v278.3Z" stroke="#000" stroke-width="5.959"/>
      <path d="m947.883,87.131c0,34.039-20.487,59.883-54.21,67.447v34.669c22.063-.945,44.755-2.836,66.186-5.673l1.576,33.409c-43.81,5.673-95.183,7.564-133.003,7.564h-42.865v-33.724h65.872v-35.929c-34.354-7.565-54.841-33.409-54.841-67.763,0-40.973,29.627-69.969,75.643-69.969,46.331,0,75.642,28.996,75.642,69.969Zm-41.289,0c0-18.911-9.454-36.875-34.353-36.875s-34.354,17.964-34.354,36.875c0,18.595,9.455,36.56,34.354,36.56s34.353-17.965,34.353-36.56Zm64.927,194.148V2.979h41.918v107.16h40.972v35.615h-40.972v135.526h-41.918Z" fill="none" stroke="#000" stroke-width="5.959"/>
      <path d="m1324.204,14.956v33.093h-95.497v62.089c36.875,0,64.295-1.26,108.42-6.934l3.152,32.778c-44.439,5.988-72.805,7.564-110.942,7.564h-42.548V14.956h137.416Zm-103.377,156.642h181.856v110.311h-181.856v-110.311Zm139.938,32.778h-98.02v44.44h98.02v-44.44Zm0-46.646V2.979h41.918v56.101h40.972v34.984h-40.972v63.665h-41.918Z" stroke="#000" stroke-width="5.959"/>
      <path d="m1518.355,86.816h35.615V25.357h39.397v180.595h-114.724V25.357h39.711v61.459Zm35.615,33.409h-35.615v52.319h35.615v-52.319Zm101.801-24.268h21.118V2.979h40.027v278.3h-40.027v-149.078h-21.118v135.525h-39.711V8.968h39.711v86.988Z" stroke="#000" stroke-width="5.959"/>
      <path d="m1772.704,28.824h132.374v32.463c-13.554,62.72-55.786,118.821-119.451,159.479l-25.214-29.627c52.634-33.093,92.661-79.739,103.061-128.276h-90.77V28.824Zm171.14,252.455V2.979h41.918v100.541h42.548v35.615h-42.548v142.144h-41.918Z" fill="none" stroke="#000" stroke-width="5.959"/>
      <path d="m161.357,440.764c-.945,11.346-2.836,22.062-5.357,32.778,25.528,30.257,50.743,63.351,71.859,95.183l-33.092,22.692c-16.705-25.529-35.93-50.427-54.525-73.436-13.868,28.681-34.039,55.156-60.514,79.424l-29.942-27.105c42.549-38.136,67.133-81.315,70.914-129.537h-54.525v-34.039h148.133v34.039h-52.95Zm79.74,218.731v-278.3h41.918v98.965h42.548v35.615h-42.548v143.72h-41.918Z" fill="none" stroke="#000" stroke-width="5.959"/>
      <path d="m402.783,405.779v142.774c24.269,0,46.646-1.576,70.915-5.673l3.152,33.409c-26.475,4.412-51.058,5.988-78.795,5.988h-36.244v-176.498h40.972Zm37.822,56.101h53.895v-74.696h39.397v258.758h-39.397v-149.393h-53.895v-34.67Zm113.779-80.685h39.711v278.3h-39.711v-278.3Z" fill="none" stroke="#000" stroke-width="5.959"/>
      <path d="m685.814,569.039c36.875,0,97.073-1.891,140.883-7.564l1.576,33.409c-43.81,5.673-104.639,7.879-142.459,7.879h-44.441v-33.724h44.441Zm122.288-104.008c0,40.658-31.518,69.023-75.326,69.023-44.125,0-75.328-28.365-75.328-69.023,0-40.973,31.833-69.338,75.328-69.338,43.808,0,75.326,28.365,75.326,69.338Zm-41.287,0c0-19.54-12.923-35.615-34.039-35.615s-34.039,16.074-34.039,35.615c0,19.226,12.921,35.3,34.039,35.3s34.039-16.074,34.039-35.3Zm73.119,194.463v-278.3h41.918v278.3h-41.918Z" fill="none" stroke="#000" stroke-width="5.959"/>
      <path d="m1136.517,425.635c-1.576,7.249-3.467,14.813-6.304,22.063,21.118,17.334,42.865,38.451,63.981,60.514l-28.68,26.475c-17.335-18.281-36.246-36.876-53.896-52.319-14.497,21.117-34.039,41.288-55.47,57.047l-28.051-28.051c34.985-24.899,59.569-54.525,66.817-85.728h-51.689v-33.409h143.09v33.409h-49.798Zm-50.427,127.015h183.432v107.475h-183.432v-107.475Zm141.514,32.778h-99.596v41.604h99.596v-41.604Zm41.918-46.646h-41.918v-63.35h-48.222v-34.984h48.222v-59.253h41.918v157.588Z" fill="none" stroke="#000" stroke-width="5.959"/>
      <path d="m1434.991,389.075c-2.207,16.074-6.304,32.148-12.607,47.592,23.323,21.117,47.275,44.755,67.762,67.763l-30.256,25.844c-17.335-19.541-36.877-39.397-56.732-57.362-14.813,22.377-34.354,42.864-57.362,60.829l-29.311-27.42c43.494-34.039,69.338-70.914,75.957-117.245h42.549Zm-58.938,160.739h185.008v110.311h-185.008v-110.311Zm143.09,32.778h-101.171v44.44h101.171v-44.44Zm0-46.646v-154.751h41.918v154.751h-41.918Z" fill="none" stroke="#000" stroke-width="5.959"/>
      <path d="m1774.122,461.88c0,41.288-29.942,71.23-76.273,71.23-46.646,0-76.273-29.942-76.273-71.23s30.258-71.544,76.273-71.544c46.331,0,76.273,30.257,76.273,71.544Zm-41.287,0c0-22.692-13.238-38.451-34.985-38.451s-34.984,15.759-34.984,38.451,13.237,38.136,34.984,38.136,34.985-15.444,34.985-38.136Zm127.645,162.945v33.094h-189.734v-99.28h41.918v66.186h147.816Zm-49.796-46.961v-196.67h41.918v196.67h-41.918Z" fill="none" stroke="#000" stroke-width="5.959"/>
      <path d="m1918.475,407.04h132.374v32.463c-13.554,62.72-55.786,118.821-119.451,159.479l-25.214-29.627c52.634-33.093,92.661-79.739,103.061-128.276h-90.77v-34.039Zm171.14,252.455v-278.3h41.918v100.541h42.548v35.615h-42.548v142.144h-41.918Z" fill="none" stroke="#000" stroke-width="5.959"/>
      <path d="m15.905,771.703h130.797v29.941c-15.444,54.21-61.143,100.226-117.875,131.113l-24.268-30.257c46.015-24.899,83.521-58.307,98.335-97.389H15.905v-33.409Zm231.653,231.338v33.094H57.823v-96.444h41.918v63.35h147.816Zm-104.322-166.097h54.525v-77.534h41.918v197.93h-41.918v-85.727h-54.525v-34.669Z" fill="red" stroke="red" stroke-width="5.959"/>
      <path d="m305.869,771.388h131.743v28.996c-14.183,51.688-62.72,98.334-118.822,122.918l-23.952-29.941c45.7-20.801,82.89-53.265,99.28-88.564h-88.249v-33.409Zm208.33,212.428c0,38.766-29.941,66.187-77.533,66.187-47.906,0-78.162-27.42-78.162-66.187s30.256-65.871,78.162-65.871c47.592,0,77.533,27.105,77.533,65.871Zm-114.093,0c0,19.856,15.128,33.094,36.246,33.094s36.244-13.237,36.244-33.094c0-19.541-15.128-33.093-36.244-33.093s-36.246,13.552-36.246,33.093Zm76.588-69.653v-154.751h41.918v57.677h40.972v34.984h-40.972v62.089h-41.918Z" fill="red" stroke="red" stroke-width="5.959"/>
      <path d="m739.236,886.742h-22.377c-6.304,35.93-30.887,58.938-68.393,58.938-43.494,0-69.969-30.887-69.969-77.218,0-46.646,26.475-77.533,69.969-77.533,37.506,0,62.405,23.008,68.393,59.568h22.377v-85.097h39.397v258.758h-39.397v-137.416Zm-62.089-18.28c0-25.214-7.879-44.44-28.68-44.44s-28.682,19.226-28.682,44.44c0,24.899,7.879,44.124,28.682,44.124s28.68-19.226,28.68-44.124Zm119.137-109.051h39.711v278.3h-39.711v-278.3Z" fill="red" stroke="red" stroke-width="5.959"/>
      <path d="m1113.983,835.053h-143.09v-33.093h50.743v-37.506h41.918v37.506h50.429v33.093Zm-9.455,75.327c0,37.506-21.432,64.611-61.46,64.611-40.342,0-61.774-27.105-61.774-64.611s21.432-64.611,61.774-64.611c40.028,0,61.46,27.105,61.46,64.611Zm-39.713,0c0-17.965-7.249-31.517-21.747-31.517-14.813,0-22.061,13.552-22.061,31.517s7.249,31.517,22.061,31.517c14.499,0,21.747-13.552,21.747-31.517Zm59.884,113.778v-258.758h39.396v86.988h21.118v-92.977h40.027v278.3h-40.027v-149.078h-21.118v135.525h-39.396Z" fill="red" stroke="red" stroke-width="5.959"/>
      <path d="m1417.499,880.438v16.074h111.256v30.572h-264.746v-30.572h111.256v-16.074h-71.545v-71.86h142.774v-13.552h-143.719v-30.572h185.637v71.229h-142.774v14.813h147.186v29.941h-75.326Zm-72.805,76.903h103.377v-20.486h41.918v101.486h-187.213v-101.486h41.918v20.486Zm103.377,29.942h-103.377v18.595h103.377v-18.595Z" fill="red" stroke="red" stroke-width="5.959"/>
      <path d="m1661.132,802.905c-1.891,6.304-4.098,12.923-6.935,19.541,21.747,15.759,42.234,34.354,64.612,57.047l-28.682,26.475c-17.964-17.965-36.244-35.615-55.155-50.428-15.759,22.062-35.615,42.233-54.21,55.155l-28.051-28.05c34.039-23.323,56.101-54.525,66.817-79.74h-51.689v-33.409h143.09v33.409h-49.798Zm-29.942,124.179v76.903h3.467c12.923,0,26.159-1.26,40.658-4.728l2.836,32.463c-14.499,3.783-29.942,5.359-44.439,5.359h-43.494v-109.997h40.972Zm158.849,66.817c0,28.996-22.063,49.168-55.47,49.168-33.725,0-55.472-20.171-55.472-49.168,0-9.14,3.467-17.019,9.455-23.638h-18.28v-30.887h43.494v-23.008h41.918v23.008h43.81v30.887h-19.226c5.988,6.618,9.771,14.498,9.771,23.638Zm-35.615-2.836c0-11.031-7.879-20.487-19.856-20.487s-19.857,9.455-19.857,20.487,7.879,20.486,19.857,20.486,19.856-9.455,19.856-20.486Zm-12.292-82.261v-149.393h41.918v54.841h40.972v34.984h-40.972v59.568h-41.918Z" fill="red" stroke="red" stroke-width="5.959"/>
      <path d="m2005.937,867.516c0,47.906-33.409,78.163-78.479,78.163-45.386,0-78.478-30.257-78.478-78.163,0-48.222,33.723-78.479,78.478-78.479,45.07,0,78.479,30.257,78.479,78.479Zm-41.604,0c0-25.845-13.552-44.755-36.875-44.755s-36.875,18.91-36.875,44.755c0,25.529,13.552,44.44,36.875,44.44s36.875-18.911,36.875-44.44Zm69.34,170.195v-278.3h41.918v91.086h42.548v35.615h-42.548v151.599h-41.918Z" fill="red" stroke="red" stroke-width="5.959"/>
      <path d="m2158.484,777.061h45.386l-1.576,131.428-3.467,54.841h-35.299l-3.467-54.841-1.576-131.428Zm.315,205.809h44.755v43.494h-44.755v-43.494Z" fill="red" stroke="red" stroke-width="5.959"/>
    </g>
  </g>
</svg>