<?xml version="1.0" encoding="UTF-8"?>
<svg id="b" data-name="레이어 2" xmlns="http://www.w3.org/2000/svg" width="1144.138" height="781.381" viewBox="0 0 1144.138 781.381">
  <g id="c" data-name="HOME_click">
    <g>
      <path d="m493.466,160.468c6.371-34.692,12.744-96.052,13.215-119.652h-109.503V15.327h140.891v19.824c0,27.376-6.371,88.5-13.215,125.316h44.603v25.016h-198.24v-25.016h122.248Z" fill="red" stroke="red" stroke-width="3.751"/>
      <path d="m600.141,22.408h83.072v23.836c-7.315,42.716-33.983,87.084-71.508,117.056l-20.768-20.296c32.568-25.252,55.932-62.069,62.067-95.344h-52.863v-25.252Zm132.632,177.708h-29.737v-94.872h-28.792v-26.196h28.792V6.36h29.737v193.756ZM747.641,1.875h29.972v208.389h-29.972V1.875Z" fill="red" stroke="red" stroke-width="3.751"/>
      <path d="m342.071,329.684c-.708,8.496-2.124,16.52-4.013,24.544,19.117,22.656,37.997,47.436,53.808,71.272l-24.779,16.992c-12.509-19.116-26.904-37.759-40.828-54.988-10.384,21.476-25.488,41.3-45.312,59.472l-22.42-20.296c31.861-28.556,50.268-60.888,53.1-96.996h-40.828v-25.488h110.921v25.488h-39.648Zm59.709,163.784v-208.389h31.388v74.104h31.859v26.668h-31.859v107.616h-31.388Z" fill="red" stroke="red" stroke-width="3.751"/>
      <path d="m522.849,303.488v106.908c18.173,0,34.928-1.18,53.101-4.248l2.36,25.016c-19.824,3.304-38.232,4.484-59.001,4.484h-27.139v-132.16h30.679Zm28.32,42.008h40.356v-55.932h29.5v193.756h-29.5v-111.864h-40.356v-25.96Zm85.196-60.416h29.736v208.389h-29.736v-208.389Z" fill="red" stroke="red" stroke-width="3.751"/>
      <path d="m698.672,402.136v-21.948h198.24v21.948h-198.24Zm168.504,8.732v51.684h-108.088v10.62h113.28v21.948h-144.431v-52.864h108.088v-9.912h-108.797v-21.476h139.949Zm-138.769-38.704v-51.448h106.908v-9.912h-107.616v-21.948h139.004v51.92h-106.908v9.912h110.212v21.476h-141.6Z" fill="red" stroke="red" stroke-width="3.751"/>
      <path d="m29.016,708.233h56.167v-17.7H1.875v-24.544h198.24v24.544h-83.308v17.7h54.28v71.272h-31.388v-46.728H29.016v-24.544Zm93.455-109.033c-1.651,3.068-3.54,5.9-5.664,8.732,20.768,8.26,41.772,18.408,64.429,30.208l-15.104,22.656c-23.364-12.272-46.728-23.364-69.385-32.332-19.352,15.104-43.896,26.432-64.9,32.804l-13.452-23.364c28.084-8.496,55.932-23.836,67.26-38.704H31.847v-24.78h138.532v24.78h-47.908Z" fill="red" stroke="red" stroke-width="3.751"/>
      <path d="m341.481,621.149c0,28.084-21.948,48.852-56.64,48.852-34.928,0-56.64-20.768-56.64-48.852s22.184-48.852,56.64-48.852c34.692,0,56.64,20.768,56.64,48.852Zm-30.916,0c0-12.272-8.26-24.308-25.724-24.308s-25.724,12.036-25.724,24.308,8.26,24.544,25.724,24.544,25.724-12.272,25.724-24.544Zm59,98.649v-12.036h-107.852v-23.836h139.005v57.82h-106.908v12.508h111.863v24.072h-143.251v-58.528h107.143Zm-.235-45.076v-106.436h31.388v106.436h-31.388Z" fill="red" stroke="red" stroke-width="3.751"/>
      <path d="m455.236,587.165h97.704v24.308c-10.148,46.964-40.356,89.444-88.028,119.888l-18.88-22.184c39.412-24.78,67.969-60.18,75.756-96.524h-66.552v-25.488Zm95.344,59.472h38.233v-78.353h31.388v208.389h-31.388v-103.84h-38.233v-26.196Z" fill="red" stroke="red" stroke-width="3.751"/>
      <path d="m761.331,585.749v79.532h-64.664v33.512c26.432,0,53.807-1.416,84.488-5.192l1.888,25.016c-31.152,4.012-60.652,5.192-88.972,5.192h-28.792v-83.308h64.9v-29.736h-66.08v-25.016h97.232Zm35.164,190.925v-208.389h31.388v74.576h31.859v26.668h-31.859v107.144h-31.388Z" fill="red" stroke="red" stroke-width="3.751"/>
      <path d="m973.969,657.965v69.856h99.356v25.488h-198.24v-25.488h67.26v-69.856h31.624Zm30.444,37.052c5.191-32.096,7.551-61.832,7.788-87.792h-109.976v-25.488h141.364v19.824c0,30.444-2.596,63.72-7.788,96.76l-31.388-3.304Z" fill="red" stroke="red" stroke-width="3.751"/>
      <path d="m1108.255,581.501h33.984l-1.18,98.412-2.596,41.064h-26.432l-2.596-41.064-1.18-98.412Zm.236,154.108h33.512v32.568h-33.512v-32.568Z" fill="red" stroke="red" stroke-width="3.751"/>
    </g>
  </g>
</svg>