<?xml version="1.0" encoding="UTF-8"?>
<svg id="b" data-name="레이어 2" xmlns="http://www.w3.org/2000/svg" width="951.187" height="532.492" viewBox="0 0 951.187 532.492">
  <g id="c" data-name="HOME_click">
    <g>
      <path d="m233.988,151.026c23.216,0,61.117-1.28,88.701-5.121l.992,22.617c-27.584,3.841-65.882,5.334-89.693,5.334h-27.981v-22.831h27.981Zm76.992-70.411c0,27.525-19.844,46.727-47.426,46.727-27.782,0-47.426-19.203-47.426-46.727,0-27.738,20.042-46.94,47.426-46.94,27.582,0,47.426,19.203,47.426,46.94Zm-25.995,0c0-13.228-8.135-24.11-21.431-24.11s-21.431,10.882-21.431,24.11c0,13.016,8.135,23.897,21.431,23.897s21.431-10.882,21.431-23.897Zm46.036,131.648V23.859h26.392v188.403h-26.392Z" stroke="#000" stroke-width="2.058"/>
      <path d="m477.509,62.327c-1.19,15.15-3.572,29.872-7.341,44.381,15.478,20.697,31.153,43.953,44.647,67.637l-21.629,15.149c-9.922-17.923-22.026-36.485-33.337-52.275-8.533,20.27-20.638,39.473-36.909,56.969l-19.447-18.136c28.971-30.085,44.052-68.064,47.426-113.725h26.59Zm48.22,174.748V48.672h26.392v66.998h26.789v24.11h-26.789v97.296h-26.392Z" stroke="#000" stroke-width="2.058"/>
      <path d="m723.634,57.998c0,23.044-12.899,40.54-34.132,45.661v23.47c13.891-.64,28.179-1.92,41.672-3.84l.992,22.617c-27.584,3.84-59.929,5.121-83.74,5.121h-26.989v-22.831h41.475v-24.323c-21.631-5.121-34.529-22.617-34.529-45.874,0-27.738,18.654-47.368,47.625-47.368,29.171,0,47.625,19.63,47.625,47.368Zm-25.997,0c0-12.802-5.951-24.964-21.629-24.964s-21.629,12.161-21.629,24.964c0,12.589,5.953,24.751,21.629,24.751s21.629-12.162,21.629-24.751Zm40.88,131.434V1.029h26.392v72.545h25.795v24.11h-25.795v91.748h-26.392Z" stroke="#000" stroke-width="2.058"/>
      <path d="m8.659,273.503h83.343v20.27c-9.525,36.059-39.091,66.784-75.207,87.694l-15.278-20.483c29.169-16.856,53.181-38.619,62.904-64.863H8.659v-22.617Zm139.303,156.611v22.404H29.495v-65.717h26.392v43.313h92.075Zm-31.75-30.938v-133.995h26.392v50.782h25.797v23.684h-25.797v59.529h-26.392Z" stroke="#000" stroke-width="2.058"/>
      <path d="m290.54,415.925v-16.642c-23.216-4.481-36.512-20.484-36.512-40.54,0-23.684,17.86-41.18,49.808-41.18,31.75,0,49.808,17.496,49.808,41.18,0,20.056-13.493,36.059-36.512,40.54v16.642h70.047v22.83h-166.685v-22.83h70.047Zm-54.371-104.55v-22.617h54.371v-22.617h26.592v22.617h54.569v22.617h-135.532Zm91.28,47.368c0-10.882-8.333-19.203-23.613-19.203s-23.613,8.321-23.613,19.203c0,11.095,8.333,19.416,23.613,19.416s23.613-8.321,23.613-19.416Z" stroke="#000" stroke-width="2.058"/>
      <path d="m477.509,311.7c-1.19,15.15-3.572,29.872-7.341,44.381,15.478,20.697,31.153,43.953,44.647,67.637l-21.629,15.149c-9.922-17.923-22.026-36.485-33.337-52.275-8.533,20.27-20.638,39.473-36.909,56.969l-19.447-18.136c28.971-30.085,44.052-68.064,47.426-113.725h26.59Zm48.22,174.748v-188.403h26.392v66.998h26.789v24.11h-26.789v97.296h-26.392Z" stroke="#000" stroke-width="2.058"/>
      <path d="m592.47,439.929v-21.55h166.685v21.55h-166.685Zm141.683,9.388v50.568h-90.883v10.669h95.249v20.91h-121.443v-50.995h90.885v-10.455h-91.48v-20.697h117.672Zm1.587-40.753h-118.267v-62.517h116.68v21.123h-90.288v20.483h91.875v20.91Z" stroke="#000" stroke-width="2.058"/>
      <path d="m880.109,381.679v39.9h70.049v23.044h-166.687v-23.044h70.049v-39.9h-46.038v-91.961h118.666v22.831h-92.274v46.301h95.251v22.83h-49.015Z" stroke="#000" stroke-width="2.058"/>
    </g>
  </g>
</svg>