<?xml version="1.0" encoding="UTF-8"?>
<svg id="b" data-name="레이어 2" xmlns="http://www.w3.org/2000/svg" width="596.781" height="575.642" viewBox="0 0 596.781 575.642">
  <g id="c" data-name="HOME_click">
    <g>
      <path d="m119.676,220.938c.952-29.809-2.065-81.686-5.125-101.297l-105.119,18.909-3.794-21.092,135.25-24.33,2.951,16.405c4.075,22.655,7.058,74.336,5.969,105.984l42.817-7.702,3.724,20.702L6.046,262.75l-3.724-20.702,117.353-21.11Z" fill="#fff" stroke="#fff" stroke-miterlimit="10" stroke-width="4"/>
      <path d="m388.218,58.904l-.699,26.072-57.999-1.555-.545,20.336,84.953,2.278-.727,27.115-202.155-5.421.727-27.115,84.953,2.278.545-20.336-55.593-1.491,2.139-79.779,32.008.858-1.44,53.707,113.833,3.052Zm-148.012,86.043l142.952,3.833-2.188,81.604-142.952-3.833,2.188-81.604Zm110.21,30.349l-78.936-2.117-.713,26.594,78.936,2.117.713-26.594Z" fill="#fff" stroke="#fff" stroke-miterlimit="10" stroke-width="2.506"/>
      <path d="m459.672,194.335c23.312,2.02,61.49,3.922,89.548,2.138l-1.139,24.729c-28.059,1.786-66.655.08-90.565-1.991l-28.095-2.434,2.155-24.876,28.095,2.434Zm83.957-70.022c-2.599,29.991-24.337,49.188-52.032,46.788-27.895-2.417-45.808-25.049-43.21-55.041,2.619-30.224,24.557-49.403,52.053-47.021,27.695,2.4,45.807,25.049,43.189,55.273Zm-26.101-2.262c1.249-14.414-5.893-26.979-19.243-28.136-13.35-1.157-22.546,9.993-23.795,24.406-1.229,14.182,5.912,26.746,19.263,27.903,13.349,1.157,22.546-9.992,23.775-24.174Zm33.796,147.451l17.788-205.287,26.5,2.296-17.788,205.287-26.5-2.296Z" fill="#fff" stroke="#fff" stroke-miterlimit="10" stroke-width="2.16"/>
      <path d="m208.088,319.709v21h-90.685v39.399c35.017,0,61.055-.8,102.957-4.4l2.993,20.8c-42.2,3.8-69.137,4.8-105.352,4.8h-40.404v-81.599h130.492Zm-98.168,99.398h172.693v69.999H109.921v-69.999Zm132.887,20.8h-93.081v28.2h93.081v-28.2Zm0-29.6v-98.198h39.806v35.6h38.907v22.199h-38.907v40.399h-39.806Z" fill="#fff" stroke="#fff" stroke-miterlimit="10" stroke-width="2.447"/>
      <path d="m379.355,403.242h29.274v-54.062h32.383v158.86h-94.298v-158.86h32.641v54.062Zm29.274,29.387h-29.274v46.023h29.274v-46.023Zm83.677-21.347h17.358v-81.787h32.901v244.806h-32.901v-131.136h-17.358v119.214h-32.641v-227.616h32.641v76.519Z" fill="#fff" stroke="#fff" stroke-miterlimit="10" stroke-width="2.68"/>
    </g>
  </g>
</svg>