<?xml version="1.0" encoding="UTF-8"?>
<svg id="b" data-name="레이어 2" xmlns="http://www.w3.org/2000/svg" width="988.895" height="584.438" viewBox="0 0 988.895 584.438">
  <g id="c" data-name="HOME_click">
    <g>
      <path d="m437.648,88.156l2.985,4.741c-18.088,9.835-41.971,18.966-68.137,25.464-4.917,1.229-6.673.878-7.903.878-1.405,0-2.283-.175-3.161-1.58-1.756-2.985-5.268-9.483-5.268-11.239l-.878-61.815v-3.863q0-1.405-1.932-2.283l-13.873-6.498c-.702-2.283,2.986-4.917,3.864-4.917l21.424,2.985c3.688.527,4.566,1.053,4.566,3.512v71.649c25.639-3.512,49.697-9.834,68.312-17.034Zm33.541-79.2v13.171l-.176,112.04-.176,6.322c-.878,13.522-5.443,21.776-10.361,22.478l-1.756-1.053-.351-27.747-.527-72.703-20.898,1.054c-3.161.175-10.888,4.039-12.995,4.039-1.58,0-16.332-8.956-16.507-10.536,0-1.229.702-2.634,1.931-2.634,4.04.527,15.629,1.053,22.478.878l25.99-1.229-.176-30.908v-5.971q0-1.756-1.229-2.458l-15.103-8.956c0-1.053,2.986-4.741,4.215-4.741,2.634,0,17.737,4.39,23.532,6.146q2.108.702,2.108,2.81Z" fill="#fff" stroke-width="0"/>
      <path d="m663.835,136.625c-.702,3.512-2.458,5.268-6.322,4.917-6.321-.527-19.492-.878-27.395-.702l-86.576,1.756c-7.551.176-13.522,3.864-16.332,4.039-3.161,0-23.18-11.414-23.18-12.819,0-1.054.878-2.81,1.756-2.81,5.093,1.054,22.127,3.688,42.322,3.161l35.824-.878-.877-26.693c0-1.581,0-1.756-1.581-2.634l-11.239-5.62c-.351-1.229,2.634-4.039,4.215-4.039l18.439,2.458c2.458.352,2.458,1.23,2.458,3.688l-1.053,32.663,33.19-.878c6.673-.175,11.766-5.093,15.278-5.444,5.796.351,13.698,1.58,17.386,2.81,3.336,1.053,4.39,3.161,3.688,7.024Zm-125.21-103.61l-12.469-6.498c0-2.283,3.864-4.917,5.268-4.917l21.249,3.337,51.805-.703c4.917,0,11.415-5.093,12.995-5.093,4.565.176,11.766.878,14.576,1.756,2.634.878,4.039,3.336,3.863,6.322-.175,3.688-1.756,5.971-6.146,5.971l-76.566.175v45.659l55.141-.527c4.566,0,10.713-4.917,12.819-4.917,5.093,0,11.064.702,14.225,1.58,2.81.703,4.215,3.161,4.039,6.322-.175,3.512-1.756,5.971-6.146,5.971l-81.658.527c-10.185,0-11.239-7.025-11.239-15.454l-.352-35.473v-1.932c0-1.58,0-1.405-1.405-2.107Z" fill="#fff" stroke-width="0"/>
      <path d="m339.831,245.156c-16.682,41.093-44.78,75.688-86.225,99.395l-4.566-4.039c23.005-15.805,42.322-38.283,56.723-61.112-8.254,2.634-17.386,5.093-27.571,7.375-1.23.527-6.146,3.688-7.2,3.512-1.932,0-18.79-9.658-18.615-11.063,0-.878.527-2.283,1.581-2.283,17.912.703,38.107-1.58,56.195-4.741,4.741-8.254,8.956-16.332,12.468-24.234l-31.435,1.581c-6.146.702-10.888,4.741-13.522,4.741-2.458,0-19.668-10.537-19.668-11.591,0-1.229.878-2.634,1.932-2.634,5.268.703,23.005,1.23,31.083.878l43.902-2.107c7.2-.351,6.849,1.581,4.917,6.322Zm42.146-25.463v13.171l-.175,112.04-.176,6.322c-.878,13.522-5.444,21.776-10.361,22.478l-1.756-1.053-.352-27.747-.351-57.249-16.157.878c-3.161.176-8.253,4.039-10.361,4.039-1.58,0-16.332-8.605-16.507-10.185,0-1.23.703-2.459,1.932-2.459,4.918.351,14.576.878,21.424.703l19.669-1.054-.352-46.712v-5.971q0-1.756-1.229-2.458l-15.103-8.956c0-1.053,2.986-4.741,4.215-4.741,2.634,0,17.737,4.39,23.532,6.146q2.107.702,2.107,2.81Z" fill="#fff" stroke-width="0"/>
      <path d="m556.536,219.692v13.171l-.176,112.04-.176,6.322c-.878,13.522-5.444,21.776-10.361,22.478l-1.756-1.053-.352-27.747-.175-35.122c-18.966,7.025-50.049,15.629-82.362,20.547-5.971.878-8.078,3.863-11.063,3.863-3.512,0-19.669-9.834-20.371-11.59-.176-1.054,1.054-2.81,1.932-2.81,8.254,1.054,17.561,1.229,31.435-.351l-6.849-42.673c-.176-1.581-.176-1.932-1.581-2.634l-7.902-3.863c-.703-1.405,2.283-4.39,4.039-4.39,2.458.351,12.819,2.107,15.278,2.81,2.81.878,2.458.703,2.81,4.39l3.512,45.307c7.903-1.053,16.507-2.458,25.112-3.863l1.932-42.673c.175-2.107.175-2.458-1.756-3.512l-8.781-4.566c-.352-1.581,2.634-4.39,4.215-4.215,2.283.176,13.171,2.634,16.332,3.512,3.864,1.054,4.039,1.405,3.512,4.917l-6.146,44.78c14.049-2.634,27.395-5.444,36.703-7.727l-.527-72.176v-5.971q0-1.756-1.229-2.458l-15.103-8.956c0-1.053,2.986-4.741,4.215-4.741,2.634,0,17.737,4.39,23.532,6.146q2.108.702,2.108,2.81Zm-125.035,26.868c0-1.229,1.054-2.81,1.58-2.81,2.459.176,15.805,1.756,28.976.878l34.595-2.107c5.268-.351,8.429-4.215,10.361-4.39,3.863-.351,11.239.702,13.873,1.756,2.283.878,3.512,2.81,2.985,5.795-.526,2.985-1.931,3.863-5.268,3.863-4.918,0-12.82.175-18.967.526l-37.404,2.283c-7.2.527-9.308,4.215-12.117,4.215-2.81-.175-18.615-8.605-18.615-10.01Z" fill="#fff" stroke-width="0"/>
      <path d="m750.587,296.434c-.351,2.985-1.931,4.917-5.619,4.741-6.322-.351-21.074-1.053-26.868-1.053l-86.4,2.107c-7.376.175-17.386,4.215-18.615,4.215-3.161.176-23.18-10.712-23.18-12.117,0-1.054.878-2.81,1.756-2.81,2.283,0,22.127,3.161,42.674,2.81l79.902-2.283c4.04-.175,13.873-5.093,16.157-5.093,5.268,0,13.17,1.756,16.507,3.161,2.985,1.229,4.039,3.336,3.687,6.322Zm-120.644-40.39l-10.185-4.566c0-2.283,2.283-4.566,3.161-4.566l20.898,2.81,54.263-.878.176-17.561-44.43,1.58c-4.566,0-10.185,3.863-12.468,3.863-1.756,0-18.439-9.307-18.439-10.185,0-1.054.878-2.634,1.932-2.634,4.565.527,20.195,1.405,27.395,1.053l54.439-2.107c6.498-.175,6.849.527,5.62,4.917l-5.796,21.073c2.634.527,5.268,1.756,5.268,4.039,0,2.81-.878,3.863-7.025,3.863l-59.883.176v16.683l46.887-.351c4.39,0,10.186-4.215,11.591-4.215,4.566,0,9.131.352,11.941,1.054,3.336.878,5.093,2.283,4.917,5.444-.175,3.688-1.931,5.268-6.321,5.268l-70.42.176c-9.659,0-11.239-5.795-11.415-14.751l-.175-7.903q0-1.405-1.932-2.283Zm92.371,108.703c-.176,3.688-2.108,5.444-6.497,5.444l-67.962-.175c-7.903,0-10.713-4.566-10.888-13.873l-.176-11.063-12.117-4.741c0-2.283,2.283-4.566,3.161-4.566l19.493,2.283,50.225-.703v-16.507l-42.147,1.58c-4.917,0-8.605,3.688-10.888,3.688-1.756,0-17.912-8.956-17.912-9.834,0-1.053.878-2.634,1.931-2.634,4.918.703,19.317,1.405,26.518,1.054l52.507-1.756c5.093-.176,5.268-.176,4.039,4.39l-5.268,20.195c2.81.527,5.62,1.756,5.62,4.215s-1.054,3.337-3.688,3.337h-58.478v16.859h44.078c5.093,0,9.659-3.863,11.063-3.863,5.093,0,10.185.702,13.171,1.405,2.81.703,4.39,2.459,4.215,5.268Z" fill="#fff" stroke-width="0"/>
      <path d="m159.476,495.404c-.526,3.512-2.634,5.268-6.321,4.917-6.322-.527-19.844-.878-27.747-.702l-85.522,2.283c-7.552.176-13.347,4.039-16.683,4.215-3.161,0-23.18-11.415-23.18-12.82-.176-1.053.702-2.81,1.58-2.81,4.917.878,22.478,3.688,42.498,3.161l5.093-.175c4.917-15.102,7.551-30.381,9.834-47.766l-17.034.703c-4.917.175-7.375,3.161-9.834,3.161s-13.698-7.902-13.698-9.658c0-.878.352-1.756,1.23-1.756,6.322.878,14.225,1.229,21.424.878l28.976-1.405c4.39-.176,4.565-.527,3.687,3.688-3.863,18.615-8.78,35.649-17.56,51.981l54.088-1.58c4.39-15.629,7.376-30.556,9.835-47.942l-19.317.527c-4.917.175-7.025,3.336-9.483,3.336s-14.4-7.727-14.4-9.483c0-.878.351-1.756,1.229-1.756,6.322.878,14.401,1.053,21.6.702l32.137-1.405c4.39-.175,4.742-.526,3.688,3.688-4.39,18.088-9.835,35.824-18.088,52.156l3.863-.175c7.903-.176,13.171-5.444,16.683-5.795,5.268.351,13.171,1.756,16.683,2.81,3.512,1.053,5.093,3.336,4.741,7.024Zm-83.59,57.951l3.512,2.459c-5.62,6.673-15.805,15.454-27.922,21.951-3.863,2.107-6.497,2.283-7.727,2.283-1.405,0-2.458-.176-3.336-1.581-1.932-2.985-4.742-9.483-4.742-11.239l-.526-33.717c0-1.58,0-1.756-1.58-2.458l-12.117-5.268c0-2.283,3.863-4.566,5.795-4.566l17.561,2.634c2.107.351,2.107.702,2.107,3.512v38.81c13.523-4.39,22.303-8.781,28.976-12.82Zm67.61-23.18c-.176,2.458-1.58,4.39-4.566,4.39-3.336,0-11.766-.351-17.21,0l-31.61,1.58c-3.337.176-8.43,3.336-10.362,3.336-1.755,0-14.75-8.078-14.75-9.658,0-.527.878-1.932,1.58-1.932,5.268,1.054,13.697,1.932,19.492,1.58l33.717-1.58c5.444-.702,6.322-3.336,9.132-3.512,2.809-.175,7.375.351,10.185.878,3.161.527,4.566,2.283,4.39,4.917Zm-10.185,31.434c0,12.293-10.713,21.073-25.464,21.073-14.4,0-25.288-8.78-25.288-21.073s11.063-20.898,25.288-20.898c14.4,0,25.464,8.605,25.464,20.898Zm-33.542-39.864c-2.634-.351-10.361-7.2-11.941-10.009,0-.878.878-1.756,1.756-1.581,7.025,1.932,17.034,2.81,25.288,3.512,4.39.351,6.322,1.405,6.322,4.215,0,2.985-1.756,3.688-5.444,4.039-3.864.351-10.888.527-15.981-.176Zm23.532,39.864c0-8.078-6.146-12.995-15.454-12.995s-15.103,4.917-15.103,12.995,5.796,12.819,15.103,12.819,15.454-4.741,15.454-12.819Z" fill="#fff" stroke-width="0"/>
      <path d="m315.421,430.428v13.171l-.176,112.04-.176,6.322c-.878,13.522-5.443,21.776-10.361,22.478l-1.756-1.053-.351-27.747-.352-63.395-35.473.526c-1.58,20.722-18.264,33.717-39.864,33.717-22.653,0-40.039-14.4-40.039-36.878s17.386-37.054,40.039-37.054c20.722,0,36.879,12.117,39.688,31.259l35.473-.527-.175-39.688v-5.971q0-1.756-1.23-2.458l-15.102-8.956c0-1.053,2.985-4.741,4.215-4.741,2.634,0,17.736,4.39,23.531,6.146q2.108.702,2.108,2.81Zm-61.64,59.356c0-16.859-11.415-26.868-26.868-26.868-15.278,0-26.868,10.186-26.868,26.868,0,16.156,11.415,26.166,26.868,26.166,15.279,0,26.868-10.186,26.868-26.166Z" fill="#fff" stroke-width="0"/>
      <path d="m507.189,557.745c-.702,3.512-2.458,5.268-6.321,4.917-6.322-.527-19.493-.878-27.396-.703l-86.576,1.756c-7.551.176-13.522,3.863-16.332,4.039-3.161,0-23.18-11.415-23.18-12.819,0-1.054.878-2.81,1.756-2.81,5.093,1.054,22.127,3.688,42.322,3.161l30.205-.703-.526-35.122-23.884.351c-1.931,4.39-5.619,8.254-9.131,8.254l-1.58-1.054-.702-70.947c0-1.405-.176-1.229-1.932-2.283l-12.819-7.376c0-2.283,2.458-4.917,3.336-4.917l20.722,3.512c3.336.527,3.863,1.58,3.863,4.039l-.175,20.897,59.004-.878-.175-21.073-13.873-8.078c0-1.054,2.634-4.39,4.215-4.39l20.37,4.215c2.458.527,2.458,1.229,2.458,3.688l-.702,68.488c0,6.498-5.444,14.049-10.361,14.049l-1.756-1.054v-5.971l-23.707.351-.527,32.488c0,.878-.176,1.756-.351,2.458l37.404-.878c6.674-.175,11.766-5.093,15.279-5.444,5.795.351,13.697,1.58,17.386,2.81,3.336,1.054,4.389,3.161,3.687,7.025Zm-108.351-78.498l-.176,31.258,59.356-.878-.176-31.258-59.004.878Z" fill="#fff" stroke-width="0"/>
      <path d="m622.919,499.443c-16.683,8.956-37.229,16.683-63.396,22.654-3.864.878-5.971.878-7.2.878-1.405,0-2.283-.527-3.161-1.932-1.756-2.985-4.917-9.659-4.917-11.415l-.878-48.293v-3.688q0-1.405-1.932-2.283l-11.941-5.795c-.176-2.283,3.161-4.741,4.215-4.741l22.829,3.337,25.99-.527c3.688,0,10.537-4.917,11.941-4.917,4.215,0,7.903.351,10.186.703,4.565,1.053,5.268,2.81,5.093,6.673-.176,3.512-2.458,5.093-6.498,5.093l-46.185.878v53.561c22.829-2.81,47.063-8.78,63.22-14.224l2.634,4.039Zm46.361,73.581c0,3.512-1.756,6.146-6.146,6.146h-69.366c-10.185,0-10.361-6.498-10.537-14.927l-.351-17.737v-1.756c0-1.405,0-1.58-1.932-2.283l-14.4-5.62c0-2.283,2.809-4.917,3.863-4.917l22.654,1.756c2.986.351,3.161.702,3.161,3.161v33.893h43.025c3.687,0,12.644-4.917,12.995-4.917,11.766,0,17.034,1.054,17.034,7.2Zm-69.015-101.327c4.039.527,16.332.878,23.18.703l24.41-1.23-.176-24.937v-9.307q0-1.23-1.054-1.932l-15.102-9.483c0-.702,2.985-4.039,4.215-4.039,2.634,0,18.966,4.741,22.478,5.971q2.634.878,2.634,4.215l-.176,14.576-.176,83.239-.352,6.498c-.351,6.498-4.565,15.278-9.307,15.278l-1.756-1.053-.878-20.722-.351-50.575-22.478,1.053c-3.162.176-9.308,4.215-11.415,4.215-1.58,0-15.629-8.956-15.629-10.01,0-1.229.702-2.458,1.932-2.458Z" fill="#fff" stroke-width="0"/>
      <path d="m784.13,458.35c-15.98,39.864-44.956,69.717-84.293,95.708l-4.742-3.863c30.732-24.41,56.371-54.44,71.298-88.157l-30.381,1.405c-6.146.703-10.888,4.741-13.523,4.741-2.458,0-19.668-10.536-19.668-11.59,0-1.229.878-2.634,1.932-2.634,5.268.703,23.005,1.229,31.083.878h.176l43.024-2.107c7.2-.351,7.025.702,5.093,5.62Zm73.581,40.917c0,4.39-2.283,5.971-6.673,5.971h-29.503v50.4l-.176,6.322c-.878,13.522-5.444,21.776-10.361,22.478l-1.756-1.053-.351-27.747-.703-112.04v-5.971q0-1.756-1.229-2.458l-15.103-8.956c0-1.053,2.986-4.741,4.215-4.741,2.634,0,17.737,4.39,23.532,6.146q2.108.702,2.108,2.81v66.732h8.956c4.39,0,10.888-5.795,12.117-5.795,12.819,0,14.927,2.458,14.927,7.902Z" fill="#fff" stroke-width="0"/>
      <path d="m896.172,553.004c0,7.025-4.215,9.834-10.537,9.834-2.634,0-6.673-.351-9.483-1.053-.702-2.81-.878-6.498-.878-8.781,0-7.2,4.039-10.01,10.361-10.01s10.537,2.81,10.537,10.01Z" fill="#fff" stroke-width="0"/>
      <path d="m942.534,553.004c0,7.025-4.215,9.834-10.537,9.834-2.634,0-6.673-.351-9.483-1.053-.702-2.81-.878-6.498-.878-8.781,0-7.2,4.039-10.01,10.361-10.01s10.537,2.81,10.537,10.01Z" fill="#fff" stroke-width="0"/>
      <path d="m988.895,553.004c0,7.025-4.215,9.834-10.537,9.834-2.634,0-6.673-.351-9.483-1.053-.702-2.81-.878-6.498-.878-8.781,0-7.2,4.039-10.01,10.361-10.01s10.537,2.81,10.537,10.01Z" fill="#fff" stroke-width="0"/>
    </g>
  </g>
</svg>