<?xml version="1.0" encoding="UTF-8"?>
<svg id="b" data-name="레이어 2" xmlns="http://www.w3.org/2000/svg" width="1451.318" height="1010.815" viewBox="0 0 1451.318 1010.815">
  <g id="c" data-name="HOME_click">
    <g>
      <path d="m40.714,45.306h52.346V12.245h40.407v126.121H0V12.245h40.714v33.061Zm135.915,158.875v-15H36.733v-30.306h180.305v73.162H78.366v15.613h143.875v30.612H37.653v-74.081h138.977Zm-83.57-127.345h-52.346v29.999h52.346v-29.999Zm83.265,70.101V5.816h40.714v141.121h-40.714Z" stroke-width="0"/>
      <path d="m504.791,276.119h-40.714v-147.855h-40.714c-7.04,36.428-35.816,58.468-74.692,58.468-45.306,0-76.223-29.387-76.223-75.917,0-46.836,31.53-76.224,76.223-76.224,39.183,0,67.958,22.347,74.692,59.081h40.714V5.816h40.714v270.303Zm-120.304-165.304c0-24.489-11.632-43.775-35.816-43.775s-35.816,19.286-35.816,43.775c0,24.183,11.632,43.469,35.816,43.469s35.816-19.285,35.816-43.469Z" stroke-width="0"/>
      <path d="m564.488,16.837h132.549v45.306h45.612V5.816h40.714v155.508h-40.714v-65.203h-45.612v48.06h-132.549V16.837Zm36.122,157.957h182.753v104.999h-40.714v-73.162h-142.039v-31.837Zm56.325-125.815h-51.733v63.06h51.733v-63.06Z" stroke-width="0"/>
      <path d="m832.344,152.753v-29.387h257.139v29.387h-257.139Zm218.569,13.47v68.264h-140.202v14.693h146.936v29.082h-187.343v-69.795h140.202v-13.776h-141.122v-28.469h181.529Zm-15-109.591c0,34.286-29.693,55.714-74.694,55.714-45.306,0-74.692-21.428-74.692-55.714,0-34.591,29.999-56.632,74.692-56.632,45.001,0,74.694,22.041,74.694,56.632Zm-40.102,0c0-13.776-11.632-24.796-34.591-24.796s-34.591,11.02-34.591,24.796c0,13.469,11.634,24.49,34.591,24.49s34.591-11.021,34.591-24.49Z" stroke-width="0"/>
      <path d="m1228.771,15.306h127.038v29.081c-15.305,53.571-70.713,89.693-114.488,108.366l-23.571-29.387c45.918-20.816,78.673-43.469,95.51-75.611h-84.489V15.306Zm176.936,187.956v-15.305h-139.896v-30.612h180.305v74.387h-138.672v15.612h143.875v30.918h-184.589v-74.999h138.977Zm-53.264-134.386h52.959V5.816h40.714v139.59h-40.714v-42.856h-52.959v-33.673Z" stroke-width="0"/>
      <path d="m468.516,478.163c0,46.53-32.449,75.917-76.224,75.917-44.081,0-76.223-29.387-76.223-75.917,0-46.836,32.754-76.224,76.223-76.224,43.775,0,76.224,29.387,76.224,76.224Zm-40.409,0c0-25.102-13.163-43.469-35.816-43.469s-35.816,18.367-35.816,43.469c0,24.796,13.163,43.163,35.816,43.163s35.816-18.367,35.816-43.163Zm67.347,165.304v-270.303h40.714v88.469h41.325v34.591h-41.325v147.243h-40.714Z" stroke-width="0"/>
      <path d="m704.23,416.939c-1.531,7.347-3.674,15-6.735,22.653,20.817,16.53,43.47,36.428,64.286,58.163l-27.858,25.714c-17.142-18.061-37.04-35.816-54.794-50.816-14.695,20.817-33.674,40.102-54.489,55.408l-27.245-27.245c33.978-24.183,57.244-54.183,66.428-83.877h-51.735v-32.449h142.039v32.449h-49.897Zm-55.407,123.978h182.753v106.223h-40.714v-74.387h-142.039v-31.837Zm182.753-13.469h-40.714v-154.284h40.714v154.284Z" stroke-width="0"/>
      <path d="m1029.637,522.55v57.244h108.059v33.061h-257.139v-33.061h108.059v-57.244h-71.02v-131.937h183.06v32.755h-142.346v66.428h146.938v32.754h-75.612Z" stroke-width="0"/>
      <path d="m280.252,810.001l-2.755,91.835c9.795-.612,19.592-2.143,29.693-3.673l2.143,32.449c-43.164,5.816-88.774,7.653-125.815,7.653h-42.856v-32.755h28.775l-2.755-95.509h38.877l2.448,95.509c9.184,0,20.204-.612,30.919-1.224l2.448-94.285h38.877Zm-134.998-44.693h156.733v32.754h-156.733v-32.754Zm220.404,245.507h-40.714v-270.303h40.714v270.303Z" stroke-width="0"/>
      <path d="m518.109,1010.815v-81.734h-108.059v-33.061h257.139v33.061h-108.059v81.734h-41.02Zm98.264-199.283c0,40.408-31.837,67.04-77.449,67.04-45.917,0-77.447-26.632-77.447-67.04,0-40.714,32.141-67.652,77.447-67.652,45.612,0,77.449,26.938,77.449,67.652Zm-40.101,0c0-19.897-14.695-34.897-37.348-34.897s-37.346,15-37.346,34.897c0,19.592,14.693,34.591,37.346,34.591s37.348-15,37.348-34.591Z" stroke-width="0"/>
      <path d="m834.332,798.981h-87.855v105.917c32.754,0,67.039-1.531,103.774-6.428l3.061,32.754c-37.041,4.898-75.305,6.735-109.285,6.735h-38.264v-172.038h128.569v33.061Zm40.102,211.834v-270.303h40.714v96.122h41.325v34.591h-41.325v139.59h-40.714Z" stroke-width="0"/>
      <path d="m1043.414,762.552v140.509c32.756,0,71.326-2.143,107.448-7.041l3.061,32.755c-38.57,5.204-78.978,7.347-116.019,7.347h-35.204v-173.569h40.714Zm172.039,248.262h-40.714v-270.303h40.714v270.303Z" stroke-width="0"/>
      <path d="m1270.251,959.387h44.081v43.469h-44.081v-43.469Z" stroke-width="0"/>
    </g>
  </g>
</svg>