<?xml version="1.0" encoding="UTF-8"?>
<svg id="b" data-name="레이어 2" xmlns="http://www.w3.org/2000/svg" width="143.244" height="99.077" viewBox="0 0 143.244 99.077">
  <g id="c" data-name="HOME_click">
    <g>
      <g>
        <ellipse cx="48.884" cy="72.097" rx="48.656" ry="26.751" fill="#fff" stroke="#666" stroke-miterlimit="10" stroke-width=".457"/>
        <g>
          <path d="m31.045,66.436h1.379v1.537h-1.379v-1.537Zm0,3.038h1.379v8.036h-1.379v-8.036Z" fill="#666" stroke-width="0"/>
          <path d="m34.476,69.436h1.289v1.146c.382-.473.786-.812,1.214-1.018.427-.206.902-.309,1.425-.309,1.145,0,1.919.399,2.322,1.198.221.437.332,1.063.332,1.877v5.179h-1.38v-5.088c0-.493-.073-.889-.219-1.191-.241-.503-.678-.754-1.311-.754-.322,0-.586.033-.792.098-.372.11-.699.332-.98.663-.226.266-.373.541-.441.826-.068.284-.102.69-.102,1.217v4.229h-1.357v-8.073Z" fill="#666" stroke-width="0"/>
          <path d="m47.497,69.685c.24.15.513.415.819.791v-4.078h1.304v11.111h-1.221v-1.123c-.315.498-.688.857-1.119,1.078-.43.221-.923.332-1.479.332-.896,0-1.672-.378-2.328-1.134s-.984-1.763-.984-3.019c0-1.176.299-2.195.897-3.057s1.453-1.293,2.564-1.293c.616,0,1.132.131,1.547.392Zm-3.029,6.053c.365.583.95.874,1.755.874.625,0,1.139-.27,1.541-.81.403-.54.603-1.315.603-2.325,0-1.02-.207-1.775-.622-2.265s-.927-.735-1.538-.735c-.68,0-1.231.262-1.654.784-.422.523-.633,1.292-.633,2.306,0,.864.182,1.588.547,2.171Z" fill="#666" stroke-width="0"/>
          <path d="m56.634,69.659c.534.269.941.617,1.221,1.044.27.407.449.882.539,1.425.08.372.12.965.12,1.779h-5.871c.025.822.217,1.48.576,1.977.359.496.915.744,1.667.744.703,0,1.265-.235,1.683-.704.234-.273.4-.588.498-.947h1.334c-.036.296-.153.627-.351.991s-.42.662-.664.893c-.409.402-.916.673-1.519.814-.324.08-.691.12-1.1.12-.999,0-1.845-.366-2.539-1.097-.694-.731-1.041-1.755-1.041-3.072,0-1.296.349-2.349,1.049-3.158.699-.809,1.613-1.213,2.742-1.213.569,0,1.121.134,1.656.403Zm.486,3.17c-.054-.588-.182-1.058-.381-1.41-.369-.653-.985-.98-1.847-.98-.618,0-1.135.225-1.554.674-.419.45-.641,1.022-.666,1.715h4.448Z" fill="#666" stroke-width="0"/>
          <path d="m59.464,69.436h1.757l1.855,2.842,1.877-2.842,1.65.038-2.721,3.897,2.842,4.138h-1.733l-2.006-3.03-1.945,3.03h-1.718l2.842-4.138-2.699-3.935Z" fill="#666" stroke-width="0"/>
        </g>
      </g>
      <g>
        <path d="m142.771,35.821c-1.072-6.074-5.886-10.735-12.161-12.677.15-1.354.228-2.727.228-4.117,0-.265-.017-.527-.022-.79.006-.115.022-.229.022-.345,0-.292-.02-.582-.056-.87C129.622,7.685,109.893.253,85.722.253s-43.905,7.433-45.061,16.772c-.035.287-.056.576-.056.867,0,.115.017.229.022.343-.006.264-.022.526-.022.792,0,22.527,20.2,40.789,45.117,40.789,9.389,0,18.106-2.594,25.326-7.031,4.123,2.567,9.484,3.718,15.05,2.808,10.824-1.77,18.288-10.622,16.673-19.772Zm-17.657,14.2c-3.123.511-6.151.047-8.666-1.137,6.27-5.276,10.877-12.142,13.029-19.893,3.482,1.497,6.07,4.333,6.701,7.909,1.072,6.072-3.882,11.947-11.064,13.122Z" fill="#fff" stroke="#666" stroke-miterlimit="10" stroke-width=".507"/>
        <g>
          <path d="m62.92,26.619h1.289v1.395c.105-.271.364-.602.777-.991s.887-.584,1.425-.584c.025,0,.068.003.129.008.06.005.163.015.309.03v1.432c-.08-.015-.154-.025-.222-.03s-.142-.008-.222-.008c-.684,0-1.209.22-1.575.66s-.551.946-.551,1.519v4.644h-1.357v-8.073Z" fill="#666" stroke-width="0"/>
          <path d="m73.011,26.841c.534.269.941.617,1.221,1.044.27.407.449.882.539,1.425.08.372.12.965.12,1.779h-5.871c.025.822.217,1.48.576,1.977.359.496.915.744,1.667.744.703,0,1.265-.235,1.683-.704.234-.273.4-.588.498-.947h1.334c-.036.296-.153.627-.351.991s-.42.662-.664.893c-.409.402-.916.673-1.519.814-.324.08-.691.12-1.1.12-.999,0-1.845-.366-2.539-1.097-.694-.731-1.041-1.755-1.041-3.072,0-1.296.349-2.349,1.049-3.158.699-.809,1.613-1.213,2.742-1.213.569,0,1.121.134,1.656.403Zm.486,3.17c-.054-.588-.182-1.058-.381-1.41-.369-.653-.985-.98-1.847-.98-.618,0-1.135.225-1.554.674-.419.45-.641,1.022-.666,1.715h4.448Z" fill="#666" stroke-width="0"/>
          <path d="m80.937,29.806c.312-.04.519-.17.625-.391.061-.121.091-.295.091-.522,0-.464-.164-.801-.493-1.01s-.799-.314-1.411-.314c-.707,0-1.209.192-1.504.576-.166.212-.274.528-.324.947h-1.267c.026-.998.348-1.692.968-2.082.62-.391,1.339-.586,2.157-.586.949,0,1.719.181,2.312.543.587.362.881.925.881,1.689v4.651c0,.141.029.254.087.339.057.085.179.128.365.128.061,0,.129-.004.204-.011.076-.008.156-.019.242-.034v1.002c-.212.061-.372.098-.483.113s-.262.022-.453.022c-.467,0-.806-.166-1.018-.497-.111-.176-.188-.424-.234-.746-.276.362-.673.676-1.191.942s-1.088.399-1.711.399c-.749,0-1.36-.227-1.835-.681-.475-.454-.712-1.022-.712-1.705,0-.748.233-1.327.701-1.739.468-.412,1.08-.665,1.84-.76l2.164-.271Zm-2.857,3.666c.287.225.626.338,1.018.338.478,0,.939-.11,1.387-.331.753-.366,1.13-.966,1.13-1.799v-1.091c-.165.106-.378.194-.639.265-.261.071-.517.121-.768.151l-.819.105c-.492.065-.861.168-1.109.308-.42.236-.629.612-.629,1.128,0,.391.144.699.43.925Z" fill="#666" stroke-width="0"/>
          <path d="m89.631,26.868c.24.15.513.415.819.791v-4.078h1.304v11.111h-1.221v-1.123c-.315.498-.688.857-1.119,1.078-.43.221-.923.332-1.479.332-.896,0-1.672-.378-2.328-1.134s-.984-1.763-.984-3.019c0-1.176.299-2.195.897-3.057s1.453-1.293,2.564-1.293c.616,0,1.132.131,1.547.392Zm-3.029,6.053c.365.583.95.874,1.755.874.625,0,1.139-.27,1.541-.81.403-.54.603-1.315.603-2.325,0-1.02-.207-1.775-.622-2.265s-.927-.735-1.538-.735c-.68,0-1.231.262-1.654.784-.422.523-.633,1.292-.633,2.306,0,.864.182,1.588.547,2.171Z" fill="#666" stroke-width="0"/>
          <path d="m102.399,29.806c.312-.04.519-.17.625-.391.061-.121.091-.295.091-.522,0-.464-.164-.801-.493-1.01s-.799-.314-1.411-.314c-.707,0-1.209.192-1.504.576-.166.212-.274.528-.324.947h-1.267c.026-.998.348-1.692.968-2.082.62-.391,1.339-.586,2.157-.586.949,0,1.719.181,2.312.543.587.362.881.925.881,1.689v4.651c0,.141.029.254.087.339.057.085.179.128.365.128.061,0,.129-.004.204-.011.076-.008.156-.019.242-.034v1.002c-.212.061-.372.098-.483.113s-.262.022-.453.022c-.467,0-.806-.166-1.018-.497-.111-.176-.188-.424-.234-.746-.276.362-.673.676-1.191.942s-1.088.399-1.711.399c-.749,0-1.36-.227-1.835-.681-.475-.454-.712-1.022-.712-1.705,0-.748.233-1.327.701-1.739.468-.412,1.08-.665,1.84-.76l2.164-.271Zm-2.857,3.666c.287.225.626.338,1.018.338.478,0,.939-.11,1.387-.331.753-.366,1.13-.966,1.13-1.799v-1.091c-.165.106-.378.194-.639.265-.261.071-.517.121-.768.151l-.819.105c-.492.065-.861.168-1.109.308-.42.236-.629.612-.629,1.128,0,.391.144.699.43.925Z" fill="#666" stroke-width="0"/>
          <path d="m106.695,23.619h1.357v11.073h-1.357v-11.073Z" fill="#666" stroke-width="0"/>
          <path d="m110.124,23.619h1.357v11.073h-1.357v-11.073Z" fill="#666" stroke-width="0"/>
        </g>
      </g>
    </g>
  </g>
</svg>